<?xml version="1.0" encoding="UTF-8"?>
<!DOCTYPE svg PUBLIC "-//W3C//DTD SVG 1.1//EN" "http://www.w3.org/Graphics/SVG/1.1/DTD/svg11.dtd">
<!-- Creator: CorelDRAW -->
<svg xmlns="http://www.w3.org/2000/svg" xml:space="preserve" width="6.5337mm" height="2.4936mm" style="shape-rendering:geometricPrecision; text-rendering:geometricPrecision; image-rendering:optimizeQuality; fill-rule:evenodd; clip-rule:evenodd"
viewBox="0 0 0.0960956 0.0366751"
 xmlns:xlink="http://www.w3.org/1999/xlink">
 <defs>
  <style type="text/css">
   <![CDATA[
    .fil1 {fill:#23B7E5}
    .fil0 {fill:#23B7E5;fill-rule:nonzero}
   ]]>
  </style>
 </defs>
 <g id="图层_x0020_1">
  <metadata id="CorelCorpID_0Corel-Layer"/>
  <g id="_366792816">
   <path id="_366794616" class="fil0" d="M0.0653933 0.0222748l0 -0.0180405 0.0104042 0 0 0.0190847c-0.00022944,0.0040402 0.00144282,0.00600809 0.00503297,0.00589043 0.00323275,0.000117662 0.00485354,-0.00185023 0.00485354,-0.00589043l0 -0.0190847 0.0104042 0 0 0.0180405c0.000236794,0.00970855 -0.00485354,0.0145121 -0.0152578,0.0143929 -0.0105234,0.000236794 -0.0156666,-0.00456527 -0.0154372,-0.0143929z"/>
   <rect id="_366794328" class="fil1" transform="matrix(9.62501E-016 0.0354503 -0.0354503 9.62501E-016 0.0343811 8.28323E-009)" width="0.10396" height="0.10396"/>
   <path id="_366794184" class="fil1" d="M0.0447893 0.0182346l0.00433583 0c0.00265621,0 0.00404756,-0.00127369 0.00415933,-0.00381076 -0.000111778,-0.0021988 -0.00196201,-0.00330041 -0.00555068,-0.00330041l-0.00294448 0 0 0.00711117zm-0.00302684 -0.0108719l0 0.00368575 -0.00368575 0 0 -0.00368575 0.00368575 0zm0.00302684 0.0282167l-0.0104057 0 0 -0.0282388 0.00367839 0 0 -0.00367692 0.0115808 0c0.00890256,0.000236794 0.0134678,0.00381812 0.0137046,0.0107601 -0.000117662,0.00751122 -0.00457262,0.011269 -0.0133561,0.011269l-0.00520211 0 0 0.00988651z"/>
   <path id="_366794088" class="fil1" d="M0.0153357 0.00311068c0.00844663,0 0.0153357,0.00688908 0.0153357,0.0153357 0,0.00844663 -0.00688908,0.0153357 -0.0153357,0.0153357 -0.00844663,0 -0.0153357,-0.00688908 -0.0153357,-0.0153357 0,-0.00844663 0.00688908,-0.0153357 0.0153357,-0.0153357zm0 0.00971296c0.00309744,0 0.00562275,0.00252531 0.00562275,0.00562275 0,0.00309744 -0.00252531,0.00562275 -0.00562275,0.00562275 -0.00309744,0 -0.00562275,-0.00252531 -0.00562275,-0.00562275 0,-0.00309744 0.00252531,-0.00562275 0.00562275,-0.00562275z"/>
  </g>
 </g>
</svg>
