<?xml version="1.0" standalone="no"?><!DOCTYPE svg PUBLIC "-//W3C//DTD SVG 1.1//EN" "http://www.w3.org/Graphics/SVG/1.1/DTD/svg11.dtd"><svg t="1494230250273" class="icon" style="" viewBox="0 0 1301 1024" version="1.1" xmlns="http://www.w3.org/2000/svg" p-id="11518" xmlns:xlink="http://www.w3.org/1999/xlink" width="81.3125" height="64"><defs><style type="text/css"></style></defs><path d="M1267.088449 300.706988h-121.868179c-5.793163 0-11.124828 1.726547-15.904504 4.307319l-54.940039-165.473451C1056.797159 45.395163 990.547694 0 909.126691 0H393.033833c-93.463398 0-150.191517 60.977524-165.250846 139.448556l-55.086632 166.036298c-5.011331-2.904726-10.697716-4.777867-16.874556-4.777866h-121.889896C15.202303 300.706988 0 315.882144 0 334.664228v29.443603c0 18.72779 15.204113 33.931903 33.931903 33.931903l46.148039 7.88348c-14.567064 28.478981-22.884896 61.060775-22.884896 98.970614l-17.082683 195.32245c0 5.657429 0.414444 11.425255 1.116645 17.229277-0.646098 3.541775-1.116645 7.237382-1.116645 11.01805v234.976934c0 33.434208 27.136111 60.534124 60.56851 60.534124h92.439053c33.459546 0 60.561271-27.099915 60.56127-60.534124v-75.5283h794.761936v75.5283c0 33.432399 27.108964 60.534124 60.56851 60.534124h92.440862c33.432399 0 60.56308-27.101725 60.563081-60.534124V728.461795c0-3.786097-0.465118-7.476276-1.118455-11.01805 0.673245-5.804022 1.118455-11.571848 1.118455-17.229277l-17.082684-195.31521c0-38.007568-8.346788-70.614699-22.968146-99.18598l45.123694-7.675354c18.753127 0 33.930093-15.204113 33.930093-33.931902v-29.445414c0.00362-18.780274-15.175156-33.95543-33.930093-33.95362zM268.536018 265.931719l40.344017-107.380745 0.562848-2.515619c4.012322-21.713956 12.978062-25.583305 26.220353-42.349274h631.588738c13.361739 17.229277 21.688619 21.603559 25.375178 42.114l40.986495 110.135258 15.005035 59.826492c-3.40604 43.775394-55.99877 78.351585-99.768734 78.351585H353.306957c-43.804351 0-96.398891-34.574381-99.797692-78.351585l15.033993-59.826492-0.00724-0.00362z m28.274475 510.641747c-50.661676 0-91.704275-41.051648-91.704275-91.711514s41.042599-91.706085 91.704275-91.706085 91.711514 41.044409 91.711514 91.706085c0.00181 50.659866-41.048029 91.711514-91.711514 91.711514m512.203602-67.655679h-0.009049c0 15.086476-12.216137 27.277276-27.282705 27.277275H524.445076c-15.057519 0-27.282705-12.190799-27.282705-27.277275v-76.650375c0-15.057519 12.216137-27.250129 27.282705-27.250129H781.724151c15.064759 0 27.288134 12.18899 27.288134 27.250129l0.00181 76.650375z m196.30336 67.655679c-50.661676 0-91.736851-41.051648-91.736851-91.711514s41.076985-91.706085 91.736851-91.706085c50.661676 0 91.704275 41.044409 91.704275 91.706085 0.009049 50.659866-41.042599 91.711514-91.704275 91.711514" fill="#23b7e5" p-id="11519"></path></svg>