<?xml version="1.0" standalone="no"?><!DOCTYPE svg PUBLIC "-//W3C//DTD SVG 1.1//EN" "http://www.w3.org/Graphics/SVG/1.1/DTD/svg11.dtd"><svg t="1494230194309" class="icon" style="" viewBox="0 0 1024 1024" version="1.1" xmlns="http://www.w3.org/2000/svg" p-id="6927" xmlns:xlink="http://www.w3.org/1999/xlink" width="64" height="64"><defs><style type="text/css"></style></defs><path d="M632.170428 654.134161l-4.15974 45.587268c94.4133 13.157671 169.388898 40.667212 169.388898 72.583109 0 44.690852-146.609079 80.849376-288.134373 80.849376-141.493571 0-288.10265-36.158525-288.10265-80.849376 0-31.562856 73.233931-58.799174 166.099992-72.14718l-4.136204-45.644573C227.413941 671.125137 115.142925 717.530027 115.142925 772.278955c0 68.720128 176.482457 124.420731 394.176524 124.420731 217.696114 0 394.179594-55.700603 394.179594-124.420731C903.49802 717.14731 789.651113 670.414963 632.170428 654.134161L632.170428 654.134161zM543.738353 786.959306 543.738353 578.233494l-53.720505 0 0 208.725812L543.738353 786.959306 543.738353 786.959306zM796.988218 478.778364 665.553747 400.215054 329.845869 400.215054l0 157.220764 334.131987 0L796.988218 478.778364 796.988218 478.778364zM801.178657 369.498472 801.178657 201.443965 288.741705 201.443965l-131.434471 83.972507 133.011386 84.105536 510.860037 0L801.178657 369.498472zM543.738353 108.361987l-53.720505 0 0 72.284303 53.720505 0L543.738353 108.361987 543.738353 108.361987zM543.738353 108.361987" p-id="6928" fill="#23b7e5"></path></svg>