<?xml version="1.0" standalone="no"?>
<!DOCTYPE svg PUBLIC "-//W3C//DTD SVG 1.1//EN" "http://www.w3.org/Graphics/SVG/1.1/DTD/svg11.dtd" >
<svg xmlns="http://www.w3.org/2000/svg">
<metadata>Generated by IcoMoon</metadata>
<defs>
<font id="icomoon" horiz-adv-x="1024">
<font-face units-per-em="1024" ascent="960" descent="-64" />
<missing-glyph horiz-adv-x="1024" />
<glyph unicode="&#x20;" horiz-adv-x="512" d="" />
<glyph unicode="&#xe900;" glyph-name="ewm" d="M995.583 425.143h-967.166c-15.695 0-28.415 12.72-28.415 28.415 0 15.689 12.72 28.415 28.415 28.415h967.166c15.689 0 28.414-12.726 28.414-28.415 0-15.695-12.725-28.415-28.414-28.415zM514.403 37.766c-15.694 0-28.416 12.725-28.416 28.414v243.185c0 15.689 12.721 28.414 28.416 28.414s28.415-12.725 28.415-28.414v-243.185c0-15.689-12.72-28.414-28.415-28.414zM684.098-64c-15.69 0-28.415 12.726-28.415 28.415v260.094c0 15.695 12.725 28.415 28.415 28.415 15.694 0 28.414-12.72 28.414-28.415v-260.094c0.001-15.689-12.719-28.415-28.414-28.415zM825.511-64c-15.689 0-28.415 12.726-28.415 28.415v260.094c0 15.695 12.726 28.415 28.415 28.415 15.694 0 28.414-12.72 28.414-28.415v-260.094c0-15.689-12.72-28.415-28.414-28.415zM966.924-64c-15.69 0-28.415 12.726-28.415 28.415v344.95c0 15.689 12.725 28.414 28.415 28.414 15.694 0 28.414-12.725 28.414-28.414v-344.95c0-15.689-12.72-28.415-28.414-28.415zM514.403 558.232c-15.694 0-28.416 12.72-28.416 28.415v344.938c0 15.695 12.722 28.415 28.416 28.415 15.695 0 28.415-12.72 28.415-28.415v-344.938c0-15.695-12.72-28.415-28.415-28.415zM936.239 900.529c15.623 0 28.282-12.66 28.282-28.283v-226.267c0-15.618-12.659-28.283-28.282-28.283h-226.263c-15.617 0-28.282 12.665-28.282 28.283v226.267c0 15.623 12.665 28.283 28.282 28.283h226.263zM314.018 900.529c15.624 0 28.288-12.66 28.288-28.283v-226.267c0-15.618-12.665-28.283-28.288-28.283h-226.256c-15.624 0-28.288 12.665-28.288 28.283v226.267c0 15.623 12.665 28.283 28.288 28.283h226.256zM314.018 278.308c15.624 0 28.288-12.663 28.288-28.281v-226.269c0-15.621-12.665-28.281-28.288-28.281h-226.256c-15.624 0-28.288 12.66-28.288 28.281v226.269c0 15.618 12.665 28.281 28.288 28.281h226.256zM936.239 957.359h-226.263c-46.929 0-85.111-38.182-85.111-85.113v-226.267c0-46.93 38.182-85.113 85.111-85.113h226.263c46.929 0 85.111 38.183 85.111 85.113v226.267c0 46.931-38.182 85.113-85.111 85.113zM314.018 957.359h-226.256c-46.935 0-85.118-38.182-85.118-85.113v-226.267c0-46.93 38.183-85.113 85.118-85.113h226.256c46.936 0 85.118 38.183 85.118 85.113v226.267c-0.006 46.931-38.182 85.113-85.118 85.113zM314.018 335.138h-226.256c-46.935 0-85.118-38.183-85.118-85.111v-226.269c0-46.929 38.183-85.111 85.118-85.111h226.256c46.936 0 85.118 38.182 85.118 85.111v226.269c-0.006 46.928-38.182 85.111-85.118 85.111z" />
<glyph unicode="&#xe901;" glyph-name="menu" d="M435.2 729.6c0-42.415 34.385-76.8 76.8-76.8s76.8 34.385 76.8 76.8c0 42.415-34.385 76.8-76.8 76.8s-76.8-34.385-76.8-76.8zM435.2 448c0-42.415 34.385-76.8 76.8-76.8s76.8 34.385 76.8 76.8c0 42.415-34.385 76.8-76.8 76.8s-76.8-34.385-76.8-76.8zM435.2 166.4c0-42.415 34.385-76.8 76.8-76.8s76.8 34.385 76.8 76.8c0 42.415-34.385 76.8-76.8 76.8s-76.8-34.385-76.8-76.8z" />
<glyph unicode="&#xe902;" glyph-name="search" d="M716.705 746.316c-138.888 138.934-364.124 138.934-503.059 0s-138.934-364.17 0-503.059c138.914-138.924 364.14-138.924 503.059-0.015v0.015c138.924 138.904 138.924 364.13 0.015 503.044 0 0.005-0.015 0.005-0.015 0.015zM136.238 165.849c-181.64 181.69-181.64 476.225 0 657.921 181.68 181.64 476.2 181.64 657.921 0 181.65-181.696 181.65-476.23 0-657.921-181.721-181.64-476.235-181.64-657.92 0zM1005.351-45.389c-24.836-24.801-65.069-24.801-89.885 0l-89.84 89.885c-24.806 24.822-24.806 65.039 0 89.845 24.801 24.8 65.018 24.8 89.84 0l89.885-89.845c24.863-24.862 24.863-65.069 0-89.885z" />
<glyph unicode="&#xe903;" glyph-name="vip" horiz-adv-x="1911" d="M0 959.999l267.672-1023.998h177.41l283.234 1023.998h-172.742l-194.529-684.742-158.736 684.742h-202.31zM1207.633 959.996v-1023.998h220.985v497.995h429.835c28.937 0 52.596 23.659 52.596 52.596v420.814c0 28.937-23.659 52.596-52.596 52.596h-650.82zM1468.81 837.057h221.616c15.247 0 27.696-12.472 27.696-27.696v-224.729c0-15.224-12.45-27.696-27.696-27.696h-221.616c-15.224 0-27.696 12.472-27.696 27.696v224.729c0 15.224 12.472 27.696 27.696 27.696zM871.487 959.999h205.422v-1023.998h-205.422v1023.998z" />
<glyph unicode="&#xe904;" glyph-name="form_pwd" horiz-adv-x="1013" d="M233.108 677.329c-1.627 0.215-3.253 0.311-4.952 0.311-20.046 0-36.24-16.242-36.24-36.264 0-20.094 16.194-36.36 36.24-36.36 1.579 0 3.158 0.12 4.641 0.263h307.358c15.094-0.263 37.508 15.548 37.508 35.666 0 20.38-22.294 36.599-37.843 36.383h-306.712zM233.108 824.537c-1.627 0.215-3.253 0.311-4.952 0.311-20.046 0-36.24-16.242-36.24-36.24 0-20.117 16.194-36.383 36.24-36.383 1.579 0 3.158 0.12 4.641 0.287h307.358c15.094-0.287 37.508 15.525 37.508 35.642 0 20.404-22.294 36.599-37.843 36.383h-306.712zM136.731 959.995c-75.183 0-136.731-61.644-136.731-137.114v-749.795c0-75.446 61.548-137.090 136.731-137.090h311.377c32.676 5.478 31.312 49.133 0 54.635-94.033 0-188.089 0-282.074 0-67.026 0-111.925 48.105-111.925 115.394v695.711c0 67.408 40.067 103.625 107.189 103.625h692.673c67.241 0 104.581-35.833 104.581-103.074v-393.184c5.55-28.92 49.038-33.441 54.109 0 0 137.976 0 275.832 0 413.783 0 75.47-61.548 137.114-136.731 137.114h-739.199zM524.652 270.581c-18.706 0-33.92-15.046-33.92-33.465v-267.625c0-18.443 15.214-33.489 33.92-33.489h454.065c18.658 0 33.872 15.046 33.872 33.489v267.625c0 18.419-15.214 33.465-33.872 33.465h-63.581v93.195c-14.568 156.992-286.499 197.538-318.338 0v-93.195h-72.145zM541.661 249.651h420.047c16.577 0 30.164-13.42 30.164-29.781v-233.156c0-16.314-13.635-29.734-30.164-29.734h-420.047c-16.577 0-30.164 13.372-30.164 29.734v233.156c0 16.362 13.539 29.781 30.164 29.781zM617.347 270.581v75.302c14.496 192.107 282.624 147.974 274.562 0v-75.302h-274.562zM737.214 145.069h14.281v-102.189h-14.281v102.189zM233.107 544.832h219.784c15.501 0.287 37.795-15.907 37.795-36.36 0-20.046-22.414-35.929-37.532-35.594h-220.358c-1.483-0.239-3.062-0.335-4.641-0.335-20.046 0-36.24 16.314-36.24 36.36 0 20.070 16.194 36.312 36.24 36.312 1.698 0 3.325-0.096 4.952-0.383z" />
<glyph unicode="&#xe905;" glyph-name="form_prod_money" horiz-adv-x="929" d="M-0.001 752.097v-684.87c0-72.18 61.295-131.226 136.185-131.226h90.758l1.306 58.949h-71.721c-66.206 0-104.255 37.034-104.255 100.917v700.638c0 63.884 34.325 104.618 100.627 104.618h423.407l-0.726-143.369c-0.387-74.914 58.344-136.499 130.525-136.814l201.98 1.258v64.924l-263.952 272.878h-507.948c-74.89 0-136.185-58.973-136.185-131.202v-17.779zM799.16 119.622c0 3.58 42.017 21.553 48.233 24.020 8.998 3.628 44.508 21.286 50.41 21.77v-108.851l-98.571-43.927-0.073 106.989zM526.548 769.852l-145.836-219.88h114.899v-48.62h-133.814v-66.956h133.814v-49.201h-133.814v-97.507h-68.891v97.507h-138.797v49.201h138.797v66.956h-138.797v48.62h118.454l-144.361 219.88h77.575c67.512-109.166 108.416-178.492 122.929-207.737h1.427c4.886 11.974 18.36 36.332 40.396 72.882l82.63 134.855h73.39zM855.859 672.393l-122.107 0.605c-63.763 0.314-99.514 34.034-99.176 100.313l0.653 127.816h0.121l220.509-227.596v-1.137zM668.998 165.413l98.571-43.927 0.048-108.609c-8.418 1.911-41.025 17.368-50.192 21.988-6.217 3.169-48.427 19.884-48.427 23.73v106.82zM622.095 162.559l0.048-103.965c0-3.846-42.21-20.561-48.427-23.73-9.192-4.62-41.775-20.077-50.192-21.988l0.169 105.32 98.402 44.363zM393.338 162.341l98.571-43.927 0.073-105.537-98.643 43.686v105.779zM409.617 190.812c1.33 1.863 94.459 44.75 98.619 44.75 2.322 0 95.717-42.162 98.692-44.75l-99.466-44.194-97.845 44.194zM688.277 193.884c17.392 4.015 85.218 41.678 95.62 41.678 7.015 0 78.276-38.098 93.564-41.678l-94.628-43.686-94.555 43.686zM541.835 407.474l98.668-44.702-0.048-135.339-98.619 43.758v136.282zM770.351 407.184l0.339-132.968c0-5.225-87.952-41.122-98.668-46.782l-0.121 135.508 98.45 44.242zM562.179 434.905c16.255 3.798 86.573 41.726 94.604 41.726 5.007 0 78.397-38.219 93.564-41.726-1.209-1.645-90.032-42.718-93.564-42.718-5.176 0-92.91 40.396-94.604 42.718zM510.269 446.105v-175.952c-8.515 0-62.336-27.164-74.648-32.123-11.756-4.765-25.229-10.716-36.55-16.328-6.773-3.386-31.567-15.336-37.276-16.642v-168.84c9.99-2.298 61.561-26.608 73.221-32.534 6.168-3.072 71.697-32.534 73.221-32.534 1.645 0 61.416 27.479 68.165 30.503 7.039 3.193 67.197 30.503 69.157 30.503 2.491 0 60.328-26.705 68.504-30.164 7.982-3.411 66.351-30.841 68.842-30.841 1.209 0 67.222 29.511 73.221 32.534 12.046 6.096 62.674 30.116 73.221 32.534v168.84c-10.837 2.516-51.015 22.593-64.101 28.471-10.546 4.717-21.432 9.41-32.22 14.562-4.62 2.25-30.841 12.433-30.841 15.941v182.072c-13.183 3.096-57.715 25.181-72.495 32.22-6.652 3.145-72.567 32.873-72.906 32.873-1.548 0-67.125-29.462-73.269-32.534-12.046-6.096-62.674-30.14-73.245-32.559z" />
<glyph unicode="&#xe906;" glyph-name="form_home" horiz-adv-x="1013" d="M136.707 960h739.151c75.183 0 136.683-61.668 136.683-137.114 0-137.927 0-275.854 0-413.783-5.023-33.393-48.416-28.896-54.037 0v393.209c0 67.217-37.412 103.051-104.558 103.051h-119.197v-131.158c0.215-1.507 0.311-3.038 0.311-4.617 0-20.070-16.266-36.288-36.36-36.288-20.046 0-36.288 16.218-36.288 36.288 0 1.651 0.12 3.301 0.359 4.904v130.871h-267.004v-131.158c0.191-1.507 0.311-3.038 0.311-4.617 0-20.070-16.266-36.288-36.36-36.288-20.070 0-36.288 16.218-36.288 36.288 0 1.651 0.096 3.301 0.335 4.904v130.871h-162.542c-67.146 0-107.189-36.192-107.189-103.553v-695.687c0-67.361 44.923-115.442 111.997-115.442 93.985 0 187.993 0 282.002 0 31.36-5.478 32.724-49.157 0-54.659h-311.329c-75.183 0-136.707 61.692-136.707 137.114v749.749c0 75.446 61.524 137.114 136.707 137.114zM567.281 190.708c0 2.727 143.285 149.003 156.059 157.542 12.654-8.492 154.576-153.308 154.576-156.059v-173.737c0-15.238-14.185-29.446-29.446-29.446h-251.742c-17.869 0-29.446 15.644-29.446 33.848v167.852zM459.781 96.484c19.304 0 40.043 34.494 54.492 44.158 0-31.982-3.277-120.967 2.87-142.855 9.592-34.111 40.115-61.787 83.986-61.787h242.94c47.435 0 71.26 26.576 83.962 61.811 6.1 16.984 2.894 114.485 2.894 142.831 14.448-9.664 35.187-44.158 54.468-44.158h4.425c20.548 0 31.193 29.279 14.4 46.789-13.18 13.707-26.289 26.193-39.804 39.709-26.6 26.624-52.147 52.147-78.771 78.771-26.839 26.863-52.626 52.65-79.489 79.513-13.611 13.587-26.145 26.145-39.757 39.733-9.951 9.975-27.437 33.513-44.541 33.513-16.553 0-65.017-55.448-77.671-68.102-24.638-24.638-48.224-48.224-72.863-72.887-24.662-24.638-48.224-48.224-72.887-72.863-13.276-13.276-66.619-59.204-66.619-77.671 0-11.913 12.032-26.504 23.562-26.504h4.401zM233.060 677.33h306.736c15.525 0.239 37.819-15.955 37.819-36.383 0-20.070-22.438-35.905-37.532-35.618h-307.334c-1.507-0.191-3.038-0.287-4.617-0.287-20.046 0-36.288 16.266-36.288 36.36 0 20.046 16.242 36.264 36.288 36.264 1.674 0 3.325-0.096 4.928-0.335zM233.060 544.88h219.76c15.549 0.239 37.819-15.955 37.819-36.383 0-20.070-22.414-35.905-37.508-35.618h-220.382c-1.507-0.191-3.038-0.287-4.617-0.287-20.046 0-36.288 16.266-36.288 36.36 0 20.046 16.242 36.264 36.288 36.264 1.674 0 3.325-0.096 4.928-0.335zM233.060 421.114h363.5c15.525 0.239 37.819-15.955 37.819-36.383 0-20.093-22.438-35.929-37.532-35.618h-364.098c-1.507-0.191-3.038-0.311-4.617-0.311-20.046 0-36.288 16.29-36.288 36.36 0 20.046 16.242 36.288 36.288 36.288 1.674 0 3.325-0.096 4.928-0.335z" />
<glyph unicode="&#xe907;" glyph-name="form_edit_money" horiz-adv-x="908" d="M0 752.090v-684.865c0-72.18 61.295-131.226 136.161-131.226h90.782l1.306 58.949h-71.745c-66.182 0-104.231 37.034-104.231 100.917v700.64c0 63.884 34.3 104.618 100.603 104.618h423.407l-0.701-143.369c-0.387-74.914 58.32-136.499 130.5-136.814l201.979 1.258v64.923l-263.928 272.878h-507.972c-74.865 0-136.161-58.973-136.161-131.202v-17.779zM855.837 672.387l-122.107 0.605c-63.762 0.314-99.49 34.034-99.176 100.313l0.677 127.815h0.097l220.508-227.596v-1.137zM332.383-63.615c-30.744-2.516-58.441 6.87-50.87 52.732 8.466 36.937 16.932 73.874 25.399 110.81 10.353 28.374 25.568 53.168 44.871 75.059 121.478 121.551 242.98 243.028 364.53 364.579 29.97 22.714 61.634 29.97 95.644 14.513 25.471-26.656 50.87-53.265 76.317-79.921 23.85-29.874 28.809-62.964 0-101.764-117.873-117.269-235.796-234.586-353.645-351.831-23.705-22.98-48.548-36.84-73.898-46.613-42.766-12.482-85.581-25.036-128.348-37.566zM714.329 440.826l70.923-70.899 33.865 33.695c12.046 16.255 9.99 30.115 0 42.597-10.667 11.151-21.335 22.327-31.954 33.478-14.223 6.434-27.479 3.411-40.057-6.096l-32.776-32.776zM755.233 339.958l-70.874 70.923-277.715-277.74 70.632-70.632c50.023 49.805 190.925 190.538 277.957 277.449zM451.006 40.085l-67.681 67.705c-4.62-6.749-8.466-14.054-11.369-22.036-3.58-15.457-7.087-30.89-10.667-46.346-3.145-19.23 8.466-23.149 21.335-22.085 17.924 5.225 35.848 10.498 53.7 15.723 4.959 1.911 9.845 4.161 14.683 7.039zM526.549 769.848l-145.86-219.879h114.899v-48.62h-133.814v-66.956h133.814v-49.201h-133.814v-97.507h-68.866v97.507h-138.821v49.201h138.821v66.956h-138.821v48.62h118.479l-144.361 219.879h77.575c67.488-109.165 108.392-178.492 122.905-207.736h1.427c4.91 11.974 18.36 36.332 40.42 72.882l82.63 134.854h73.39z" />
<glyph unicode="&#xe908;" glyph-name="room_sort" horiz-adv-x="1107" d="M144.339 868.951c0 15.689 13.493 29.234 29.182 29.234h498.231c12.525 0 23.717-8.681 27.639-20.134h56.036c-4.524 45.995-43.276 81.949-90.5 81.949h-493.132c-47.669 0-89.323-41.602-89.323-89.323v-879.712h-53.29c-14.748 0-29.182-13.205-29.182-27.508 0-14.277 14.434-27.456 29.182-27.456h1034.3c14.748 0 29.182 13.179 29.182 27.456 0 9.387-5.099 21.259-12.656 27.927h-379.075v-0.418h-556.595v877.987zM853.772 25.793c-3.269-0.471-6.642-0.784-10.093-0.784-31.692 0.052-57.239 22.461-62.887 52.114l-1.072 13.806 0.418 187.301 0.366 155.165 0.288 126.715v1.412l0.471 182.568-80.694-79.517c-40.295-26.619-76.772 11.165-43.197 60.507l135.135 146.823c1.909 2.746 4.158 5.308 6.537 7.74l3.975 3.687c11.348 10.146 33.287 16.29 42.857 16.29s5.334-0.261 7.897-0.601v-873.228zM897.335 898.786c3.321 0.471 6.642 0.837 10.093 0.837 31.744-0.131 57.291-22.54 62.887-52.192l1.124-13.78-0.471-187.328-0.366-155.165-0.235-126.689v-1.438l-0.523-182.542 80.746 79.491c40.242 26.645 76.72-11.165 43.145-60.429l-135.083-146.902c-1.961-2.746-4.158-5.282-6.589-7.714l-3.975-3.687c-11.348-10.172-33.287-16.238-42.857-16.238-9.492 0-5.282 0.183-7.897 0.549v873.228zM274.899 451.463c0-14.329 14.434-27.508 29.182-27.508h237.114c14.722 0 29.182 13.179 29.182 27.508 0 14.277-14.46 27.456-29.182 27.456h-237.114c-14.748 0-29.182-13.179-29.182-27.456zM274.899 664.52c0-14.329 14.434-27.534 29.182-27.534h237.114c14.722 0 29.182 13.205 29.182 27.534 0 14.251-14.46 27.456-29.182 27.456h-237.114c-14.748 0-29.182-13.205-29.182-27.456zM274.899 274.492v-5.177c0-12.708 11.767-30.907 22.278-30.907h244.017c14.016 0 29.182 13.493 29.182 25.756 0 15.611-13.205 36.059-27.456 36.059h-242.291c-10.93 0-25.73-14.8-25.73-25.73z" />
<glyph unicode="&#xe909;" glyph-name="set" horiz-adv-x="1026" d="M344.081 729.232c28.067 0 87.038 29.909 97.581 48.694 6.593 11.804 26.031 100.199 26.031 118.184h88.589c1.672-19.899 14.252-75.986 19.657-99.836 7.659-33.739 35.121-43.434 64.545-54.947 41.835-16.409 51.166-16.627 87.644 7.683 8.726 5.817 66.969 46.149 71.283 46.149 3.466 0 52.523-53.541 61.807-59.746-13.234-19.778-65.927-89.825-65.927-113.312v-14.421c0-12.579 14.737-39.071 19.317-52.79 6.156-18.324 16.821-29.764 32.188-37.859 9.501-4.993 100.587-24.723 115.372-24.723v-88.613c-17.257 0-105.144-19.172-116.778-25.377-17.451-9.283-24.092-20.142-31.558-38.465-4.242-10.374-18.542-41.083-18.542-51.53v-10.301c0-37.084 63.867-103.496 63.867-115.372 0-7.077-51.845-56.523-59.746-61.807-31.17 16.482-82.239 65.927-121.577 65.927-14.179 0-41.301-13.573-53.566-18.542-23.123-9.38-27.51-11.246-40.841-31.267-7.174-10.786-25.571-98.115-27.146-117.069h-88.589c0 18.905-19.002 105.556-26.031 118.184-10.156 18.178-69.344 48.694-93.461 48.694-39.338 0-90.407-49.445-121.577-65.927l-61.322 60.231c12.337 23.753 65.442 89.801 65.442 114.887v12.361c0 8.095-15.827 42.416-19.754 52.354-6.98 17.694-16.409 30.225-31.751 38.296-8.798 4.629-101.193 24.408-115.372 24.723v88.613c21.087 1.745 106.162 19.415 119.153 27.122 19.996 11.901 47.724 67.914 47.724 98.551v2.060c0 26.904-52.693 90.383-65.927 115.372l61.322 60.231c23.438-12.628 90.771-66.412 113.821-66.412h4.12zM416.188 449.042c0 46.343 43.046 94.77 86.529 94.77h10.301c45.81 0 94.77-40.647 94.77-80.348v-30.927c0-39.241-49.494-80.348-94.77-80.348h-4.12c-50.172 0-92.71 45.664-92.71 96.854zM385.285 453.162v-14.446c0-63.624 62.849-119.493 127.733-119.493 67.381 0 127.733 57.977 127.733 125.673v2.060c0 69.344-56.91 129.818-123.613 129.818h-6.181c-65.636 0-125.673-57.274-125.673-123.613zM317.274 459.343c0 100.926 93.97 185.419 197.804 185.419 99.642 0 193.684-88.371 193.684-185.419v-20.626c0-100.635-94.164-187.48-197.804-187.48h-8.241c-92.588 0-185.444 91.377-185.444 185.419v22.687zM288.431 457.283v-10.325c0-118.935 99.545-222.503 216.347-222.503h14.421c62.776 0 119.032 31.873 150.953 63.333 28.795 28.334 67.454 91.667 67.454 146.809v12.361c0 118.45-98.503 224.587-214.286 224.587h-28.843c-55.456 0-113.918-38.732-142.688-67.478-29.934-29.909-63.358-87.983-63.358-146.784zM100.951 735.412c0-34.345 49.203-94.503 65.927-119.493l-18.397-43.337c-20.796 0.073-74.749-13.937-97.169-18.3-27.777-5.405-51.311-29.401-51.311-61.976v-90.674c0-46.973 38.247-56.838 79.136-65.079 21.232-4.266 38.877-7.635 60.158-11.925 17.621-3.587 21.014-30.831 27.583-44.549-14.518-16.7-65.927-89.825-65.927-115.372v-6.181c0-32.115 31.485-55.165 48.936-72.617 17.451-17.475 40.501-48.936 72.617-48.936h14.421c16.288 0 92.952 55.044 109.216 65.927l41.253-18.397c-0.048-14.809 13.5-75.622 17.621-93.728 5.938-25.983 27.437-54.777 56.498-54.777h100.951c30.273 0 52.451 28.407 57.88 55.456 4.508 22.493 17.912 74.798 18.348 94.964l41.447 15.949c17.863-11.586 90.916-65.394 111.033-65.394h16.482c26.613 0 55.286 35.726 70.556 50.996 17.694 17.669 46.876 39.338 46.876 72.617v2.060c0 35.848-65.927 108.925-65.927 117.432 0 2.909 14.373 34.248 16.482 43.265 18.275 0 81.778 14.809 101.799 19.754 31.339 7.756 48.621 32.673 48.621 70.896v76.252c0 48.282-36.405 61.491-76.737 69.538-21.135 4.242-42.077 8.653-61.831 12.337-18.445 3.442-11.489 4.678-18.033 19.075-1.479 3.248-10.301 22.226-10.301 24.723 0 9.235 65.927 82.36 65.927 117.432v2.060c0 34.272-30.685 56.426-48.936 74.677-17.451 17.475-40.501 48.936-72.617 48.936h-12.361c-27.704 0-100.223-63.867-111.276-63.867-9.865 0-26.153 13.185-41.204 14.421-0.461 20.578-13.937 72.423-18.348 94.964-5.114 26.080-26.904 55.456-55.82 55.456h-98.89c-45.81 0-56.692-37.593-64.715-77.44-4.266-21.135-7.95-39.168-11.973-60.158-2.909-15.149-4.339-11.925-17.815-17.209-3.781-1.479-21.572-10.034-24.989-10.034-15.609 0-80.009 63.867-115.396 63.867h-16.482c-21.45 0-53.251-37.811-66.436-50.996-17.524-17.524-46.876-37.738-46.876-70.556v-2.060z" />
<glyph unicode="&#xe90a;" glyph-name="form_edit" horiz-adv-x="1033" d="M99.671 932.372c173.864 0 347.776 0 521.64 0 51.91-9.201 46.517-81.563-8.127-88.543h-494.622c-20.793 0-38.121-17.108-37.902-37.975l8.103-741.433c0.22-20.818 17.059-37.926 37.926-37.926l746.875-0.927c20.891 0 37.926 17.059 37.926 37.926 0 141.112 0 297.867 0 439.002 12.325 45.76 70.336 47.932 84.955 0v-466.848c0-54.814-44.857-99.647-99.647-99.647h-797.128c-54.814 0-99.671 44.832-99.671 99.647v797.128c0 54.765 44.857 99.598 99.671 99.598zM204.321 73.256c-45.15-3.758-70.483-5.394-59.329 61.941 12.422 54.277 24.088 105.211 36.559 159.489 15.205 41.733 44.198 71.532 72.459 103.674 178.549 178.549 349.484 359.002 528.033 537.55 44.076 33.411 79 28.774 129.007 6.101 37.389-39.122 41.904-45.15 79.293-84.272 35.022-43.93 64.186-82.124 21.892-139.11-173.253-172.35-352.193-347.556-525.398-519.905-34.826-33.728-64.137-58.231-101.331-72.63-62.892-18.353-118.293-34.485-181.185-52.837zM771.258 804.563l104.235-104.235 49.689 49.567c17.743 23.868 14.692 44.198 0 62.551-15.644 16.4-31.288 32.801-46.931 49.201-20.964 9.494-40.415 5.027-58.89-8.932l-48.103-48.152zM831.344 656.3l-104.162 104.186-408.056-408.056 103.796-103.796c73.46 73.24 280.49 280.002 408.423 407.668zM384.363 215.736l-99.501 99.427c-6.809-9.86-12.422-20.598-16.718-32.313-5.247-22.721-10.421-45.443-15.644-68.164-4.686-28.213 12.374-33.997 31.263-32.41 26.382 7.688 52.691 15.375 79.025 23.112 7.248 2.758 14.424 6.101 21.574 10.348z" />
<glyph unicode="&#xe90b;" glyph-name="Meeting" horiz-adv-x="1151" d="M112.515 128.428h926.004c18.789 0 29.040-56.285 34.233-72.844 6.118-19.659 29.339-70.587-8.837-70.587h-976.798c-37.632 0-15.499 50.194-9.326 69.227 5.683 17.293 15.771 74.203 34.723 74.203zM660.869 787.53c0-3.48 3.399-7.423 5.493-8.157l78.472 5.873-162.029-161.132c-2.909 12.372-71.185 126.763-79.913 134.349-14.329-6.906-132.554-121.488-132.554-130.678v-3.671c0-4.187 1.251-5.438 5.438-5.438h3.644c9.218 0 102.917 105.445 121.624 117.98 2.719-10.196 31.161-55.116 38.148-67.161 5.302-9.218 34.342-65.339 41.765-65.339h1.849c9.653 0 152.105 156.346 176.059 172.498 0-16.45-0.843-85.352 12.752-85.352 4.242 0 7.287 3.018 7.287 7.233v3.644c0 16.559-0.87 99.871-12.725 99.871h-10.876c-16.695 0-94.433-1.251-94.433-14.52zM239.632 881.936c0 11.937 14.71 29.067 27.191 29.067h617.392c15.934 0 27.191-18.789 27.191-36.354v-330.42c0-17.62-15.091-32.71-32.71-32.71h-606.353c-19.713 0-32.71 15.907-32.71 36.354v334.065zM192.429 896.483v-372.212c0-33.308 29.475-59.955 63.517-59.955h172.498c-5.085-21.753-43.587-94.053-43.587-107.104v-5.438c0-6.417 11.257-12.725 18.191-12.725h7.233c22.432 0 31.188 36.599 38.855 55.55 5.819 14.275 26.511 56.067 26.511 69.717h212.469c0.734-9.082 22.813-56.72 27.816-68.412 7.042-16.505 17.103-58.65 37.496-58.65h10.958c9.136 0 18.109 6.553 18.109 16.314v1.849c0 15.2-41.846 88.016-43.587 108.899h163.416c25.75 0 56.285 30.589 56.285 56.312v383.061c0 33.336-35.728 56.312-72.599 56.312h-620.98c-41.275 0-72.599-22.922-72.599-63.517zM831.546 208.341c0 16.749 12.181 30.834 29.040 30.834h72.626c13.215 0 25.396-15.2 25.396-29.040v-34.478h-127.062v32.683zM528.317 210.136c0 14.221 12.045 29.040 25.396 29.040h72.681c16.613 0 29.040-14.52 29.040-30.834v-32.683h-127.116v34.478zM208.745 213.779c0 11.366 14.085 25.396 25.451 25.396h72.626c18.163 0 29.040-15.689 29.040-34.478v-29.040h-127.116v38.121zM1091.164-64c23.493 0 59.874 10.632 59.874 30.834 0 7.967-26.756 99.926-31.133 114.146-5.438 17.62-10.496 38.366-15.336 57.291-5.302 21.073-7.912 37.387-33.363 37.387h-63.599v47.203c0 38.203-29.719 65.393-68.956 65.393h-88.995c-31.759 0-65.312-25.532-65.312-54.517v-58.079h-79.913v36.327c0 45.735-23.928 76.27-68.956 76.27h-94.433c-33.445 0-61.75-30.725-61.75-65.393v-47.203h-96.201v52.641c0 35.593-30.78 59.955-67.188 59.955h-94.433c-36.082 0-61.723-31.079-61.723-69.037v-43.559h-81.708c-25.641 0-26.13-20.964-32.493-40.106-6.009-18.055-8.973-37.877-14.9-55.931-3.78-11.311-30.644-106.533-30.644-112.787 0-22.133 20.012-30.834 43.559-30.834h1047.602z" />
<glyph unicode="&#xe90c;" glyph-name="data_dome" horiz-adv-x="1207" d="M130.705 881.524h945.588v-708.155h-945.588v708.155zM651.777 463.099c-23.329 15.617-128.567 136.797-142.823 136.797h-8.035c-16.784 0-101.933-92.861-118.199-109.127-16.33-16.33-109.127-101.415-109.127-118.199v-6.027c0-10.822 11.275-22.162 22.097-22.162h10.044c14.516 0 168.744 172.049 197.192 191.101 28.513-19.052 123.448-136.797 148.85-136.797 20.413 0 127.335 116.255 147.359 136.343 18.987 18.987 138.287 130.058 138.287 147.359v6.027c0 10.822-11.275 22.097-22.097 22.097h-8.035c-22.745 0-215.142-220.391-255.514-247.413zM420.434-21.749v-8.035c0-19.246 22.875-34.215 44.26-34.215h259.532c15.812 0 36.224 17.885 36.224 36.224v10.044c0 15.358-17.302 32.207-34.215 32.207h-96.555v80.484h541.16c17.432 0 36.159 16.395 36.159 32.142v8.035c0 20.607-17.626 38.233-38.168 38.233h-14.127v708.155h10.109c22.292 0 42.186 14.904 42.186 36.224v6.027c0 21.255-18.274 36.224-40.177 36.224h-1128.658c-20.542 0-38.168-17.691-38.168-38.233v-2.009c0-20.542 17.626-38.233 38.168-38.233h14.127v-708.155h-16.136c-19.829 0-36.159-20.089-36.159-42.251 0-20.607 18.469-36.159 40.177-36.159h511.027v-80.484h-98.563c-16.395 0-32.207-18.728-32.207-36.224z" />
<glyph unicode="&#xe90d;" glyph-name="Customer" horiz-adv-x="1230" d="M808.6 584.715c25.283-2.112 53.801-15.117 53.801-43.899v-21.983c0-15.513-11.024-34.063-19.474-42.447-15.447-15.381-29.574-1.452-50.434-1.452-8.054 0-17.626-43.305-21.322-52.481-8.516-21.058-14.589-32.281-25.217-50.632-19.936-34.525-45.285-53.141-77.368-74.529l12.146-107.8c59.61-31.554 122.917-58.422 184.31-89.118 26.405-13.203 71.031-29.31 89.646-48.124 22.775-23.105 51.821-40.928 67.4-70.37h-810.449c1.188 14.457 50.632 59.61 62.383 71.427 22.445 22.445 56.112 32.743 86.016 47.728 30.498 15.249 60.006 27.924 90.439 43.239 16.437 8.252 79.546 40.202 92.419 43.239l16.041 107.8c-1.914 2.905-35.053 28.98-40.73 33.139-11.948 8.78-25.151 27.594-33.469 40.334-12.411 19.078-41.391 79.876-43.569 106.15-16.107 0-27.594-6.007-39.938-6.007-18.352 0-33.931 33.733-33.931 53.933v17.956c0 43.503 53.273 38.486 51.887 47.926l-13.995 95.522 2.046 0.264c-3.631 24.953 12.939 78.952 20.926 94.928 12.741 25.481 32.017 45.483 55.715 60.006 61.723 37.694 114.798 22.709 200.813 22.709h15.975c34.789 0 61.789 25.151 71.889 25.943 1.914-8.252 13.599-25.151 18.286-35.581 5.941-13.137 10.76-24.689 15.909-40.004 7.46-22.313 15.711-64.165 15.711-94.069l1.98-28.254-15.843-105.489zM155.726 618.646l1.98-45.879c-19.87-10.562-31.885-42.447-31.885-73.869v-3.961c0-21.718 10.958-47.266 19.87-59.94 4.093-5.875 13.731-15.645 19.606-20.332 11.486-9.11 16.965-7.063 27.066-12.873 4.093-2.31 23.369-43.239 28.848-50.963 11.882-16.569 29.706-30.63 38.354-43.569-5.413-11.156 2.707-10.628-9.902-18.088-5.809-3.367-10.628-6.601-17.296-10.628-12.345-7.526-22.577-14.127-34.657-21.256-23.633-13.929-46.21-29.112-70.569-43.173-24.359-13.995-46.077-29.112-70.569-43.239-18.682-10.76-56.574-30.894-56.574-57.234v-7.988c0-27.99 28.32-49.906 53.933-49.906h85.818v45.945h-81.857c-6.073 0-8.054 1.914-11.948 3.961 9.176 13.731 223.522 143.844 252.634 159.819l10.826 63.769c-42.117 28.254-68.588 64.891-81.791 121.73-17.494-4.027-28.98-7.261-40.532 5.413-6.799 7.46-15.381 26.67-15.381 40.532v1.98c0 31.885 11.948 41.853 36.968 47.728l-6.997 78.028c0 65.882 56.442 123.775 122.191 123.775l-2.442 45.879c-91.429 0-165.694-80.669-165.694-175.662zM934.224 784.34v-45.879c32.017 0 38.222 12.080 55.914 23.897 2.442-9.11 23.171-38.552 30.168-59.61 6.403-19.144 13.731-50.434 13.731-76.114l-9.968-85.818c23.303-5.413 37.892-12.939 37.892-41.919v-3.961c0-21.388-12.543-51.953-31.885-51.953-11.486 0-14.325 3.235-23.963 4.027-1.584-18.814-20.134-57.102-29.178-70.701-16.107-24.227-27.198-33.337-51.293-49.18l8.582-65.75c8.318-1.98 112.487-65.75 128.198-75.454 20.86-13.005 119.683-64.429 121.333-84.233h-99.812v-45.945h95.852c25.349 0 49.906 19.078 49.906 43.965v7.922c0 42.909-85.752 82.979-117.768 101.859-15.249 9.044-135.79 77.17-135.79 85.818v7.988c0 2.839 30.762 35.053 36.373 43.503 12.807 19.408 16.965 32.347 27.528 52.283 35.383 0 67.862 50.963 67.862 87.864v11.948c0 44.229-16.041 48.19-30.96 71.757l3.037 47.992c2.905 39.872-14.523 100.671-27.264 126.482s-45.615 73.077-66.608 87.138c-15.051-11.024-26.339-47.926-51.887-47.926zM692.681 908.115l-6.007-0.726-111.761 4.687c-61.459 2.905-123.841-34.987-154.208-65.353-34.591-34.591-59.346-91.825-59.346-160.215l5.941-69.842c-25.811-13.665-45.879-36.968-45.879-75.85v-17.956c0-44.031 33.799-99.812 73.869-99.812h13.929c11.354-48.586 61.723-125.558 99.812-145.692 0-21.124-1.782-55.187-17.23-62.581-19.012-9.11-36.506-17.164-55.253-26.604-35.383-17.692-73.473-36.506-109.781-51.887-16.833-7.129-36.968-17.494-53.933-25.943-22.313-11.156-28.254-20.728-44.757-37.1-23.633-23.435-64.363-55.715-64.363-99.284v-2.046c0-23.963 19.21-35.911 43.899-35.911h824.444c23.039 0 39.938 6.931 39.938 29.97 0 39.278-33.139 75.52-56.706 93.013-14.721 10.892-24.689 23.765-37.562 36.242-8.384 8.12-37.166 19.276-50.17 25.745-33.997 16.965-67.664 31.753-101.133 48.586-20.332 10.232-82.781 43.503-101.331 47.926l-6.469 59.874c16.437 4.357 51.425 47.134 61.525 62.251 20.662 31.092 24.491 50.5 40.334 83.441 109.979 0 109.979 177.312 40.4 193.552l7.46 69.908v26.009c0 93.475-46.474 211.771-99.812 247.485-2.244-8.582-21.52-28.914-28.386-35.449-10.43-10.034-27.66-16.437-47.464-16.437z" />
<glyph unicode="&#xe90e;" glyph-name="calendar" horiz-adv-x="973" d="M64.028 607.959h844.764v-508.751c0-56.96-45.848-105.605-102.393-105.605h-638.393c-59.757 0-103.98 44.411-103.98 104.018v510.337zM633.63 830.395c0-16.366 17.046-36.777 33.602-36.777 16.328 0 30.389 14.023 30.389 30.389v102.354c0 18.71-12.208 33.639-30.389 33.639-20.751 0-33.602-12.889-33.602-33.639v-95.967zM441.621 824.007c0-16.366 14.061-30.389 30.389-30.389h3.175c16.404 0 30.427 14.023 30.427 30.389v99.18c0 16.366-17.046 36.814-33.602 36.814-18.18 0-30.389-14.93-30.389-33.639v-102.354zM243.186 824.007c0-16.366 14.098-30.389 30.427-30.389 18.672 0 33.564 12.133 33.564 30.389v105.605c0 18.218-14.892 30.389-33.564 30.389-18.218 0-30.427-14.93-30.427-33.639v-102.354zM364.817 479.977c0-33.753 49.514-25.589 83.229-25.589 36.21 0 72.495 0 108.78 0-7.408-13.909-12.322-29.293-20.297-43.731-7.862-14.287-15.005-26.912-22.414-41.615-13.229-26.269-28.31-62.781-39.158-90.411-10.923-27.97-21.318-67.77-33.904-94.077-1.21-2.532-13.418-48.872-13.569-50.459-1.436-16.442 17.311-31.712 33.299-31.712 24.19 0 29.255 12.927 34.244 32.997 4.347 17.424 8.807 37.873 14.476 54.352 6.274 18.256 8.126 36.058 15.27 53.483 6.652 16.064 14.779 33.375 20.637 48.229 13.909 35.378 27.365 60.967 43.429 92.527 4.347 8.467 44.79 91.998 44.79 92.83v28.801h-235.249c-16.744 0-33.564-9.298-33.564-25.626zM64.028 734.427c0 40.783 21.469 72.382 46.415 87.954 11.604 7.257 32.921 15.497 51.139 16.102 21.469 0.643 36.814 8.996 36.814 30.351 0 18.672-12.133 33.564-30.389 33.564-94.115 0-168.008-72.382-168.008-166.383v-635.22c0-82.284 76.463-164.796 160.033-164.796h651.169c89.39 0 161.62 76.35 161.62 167.97v623.993c0 86.744-74.611 174.434-158.445 174.434h-6.35c-20.751 0-33.602-12.851-33.602-33.564 0-21.355 15.346-29.709 36.814-30.351 18.747-0.68 39.044-8.731 51.139-16.064 24.908-15.043 46.415-47.587 46.415-87.992v-62.403h-844.764v62.403z" />
<glyph unicode="&#xe90f;" glyph-name="Arrow_line_bottom" horiz-adv-x="1868" d="M516.072 705.205l418.95-418.95 422.030 422.030c14.139 14.55 49.803 20.213 68.671 1.329 18.536-18.63 12.465-54.045-1.74-67.754l-459.439-459.368c-18.536-14.884-45.806-13.886-63.193 3.487l-3.665 4.156-448.554 448.64c-1.581 1.246-3.163 2.499-4.574 3.986-18.536 18.536-18.536 48.716 0.089 67.26 18.536 18.536 48.646 18.536 67.089 0 1.581-1.581 2.999-3.163 4.331-4.822z" />
<glyph unicode="&#xe910;" glyph-name="Arrow_line_left" horiz-adv-x="561" d="M542.322 22.774l-426.196 426.196 429.41 429.41c14.801 14.378 20.553 50.663 1.353 69.863-18.946 18.861-54.892 12.687-68.848-1.861l-467.894-467.894c-14.801-18.946-13.364-46.265 4.144-63.688l460.535-460.027c1.269-1.607 2.622-3.129 4.060-4.652 18.861-18.861 49.479-18.861 68.425 0.085 18.861 18.861 18.861 49.394 0 68.256-1.607 1.607-3.214 3.045-4.99 4.314z" />
<glyph unicode="&#xe911;" glyph-name="Arrow_line_right" horiz-adv-x="561" d="M19.031 22.865l426.194 426.194-429.324 429.324c-14.801 14.378-20.553 50.663-1.353 69.862 18.946 18.861 54.976 12.687 68.932-1.776l467.299-467.384c15.14-18.861 14.125-46.603-3.552-64.28l-460.618-460.025c-1.269-1.607-2.537-3.214-4.060-4.652-18.861-18.861-49.563-18.861-68.425 0.085-18.861 18.861-18.861 49.479 0 68.255 1.607 1.607 3.214 3.045 4.906 4.398z" />
<glyph unicode="&#xe912;" glyph-name="Arrow_line_top" horiz-adv-x="1868" d="M455.919 154.726l477.851 477.851 481.45-481.45c16.123-16.589 56.809-23.049 78.338-1.513 21.14 21.245 14.22 61.539-2.095 77.181l-524.61 524.61c-21.245 16.589-51.862 14.98-71.417-4.656l-4.26-4.831-511.515-511.515c-1.804-1.42-3.5-2.94-5.22-4.541-21.14-21.14-21.14-55.47 0.1-76.715 21.14-21.14 55.379-21.14 76.538 0 1.804 1.804 3.42 3.608 4.831 5.589z" />
<glyph unicode="&#xe913;" glyph-name="Arrow_long_bottom" d="M392.244 417.459v477.517l0.512 8.294 0.23 1.613c4.813 31.232 32.128 55.117 64.282 55.117s58.086-22.682 63.846-52.736l0.998-7.296 0.154-6.682 0.026-189.978v-287.284l-0.026-185.14 162.663 162.099c25.498 18.688 61.696 16.256 84.429-6.477s25.037-57.114 7.859-82.458l-265.908-267.495c-1.971-2.739-4.173-5.35-6.63-7.808l-4.019-3.712c-11.494-10.342-26.726-16.64-43.392-16.64-23.859 0-44.672 12.877-56.013 32l-260.787 261.658c-18.688 25.498-16.256 61.696 6.477 84.429s57.114 25.037 82.458 7.859l162.841-161.869v184.985z" />
<glyph unicode="&#xe914;" glyph-name="Arrow_long_left" d="M409.063 567.757l487.424-0.743c31.232-4.813 55.117-32.128 55.117-64.282s-22.682-58.086-52.736-63.846l-7.066-0.973-6.912-0.179h-662.4l162.099-162.662c18.688-25.498 16.256-61.696-6.477-84.429s-57.114-25.037-82.458-7.859l-267.495 265.908c-2.739 1.971-5.35 4.173-7.808 6.63l-3.712 4.019c-10.342 11.494-16.64 26.726-16.64 43.392 0 23.859 12.877 44.672 32 56.013l261.658 260.787c25.498 18.688 61.696 16.256 84.429-6.477s25.037-57.114 7.859-82.458l-161.869-162.842h184.986z" />
<glyph unicode="&#xe915;" glyph-name="Arrow_long_right" d="M542.54 567.757l-487.423-0.743c-31.232-4.813-55.117-32.128-55.117-64.281s22.682-58.086 52.736-63.846l7.296-0.998 6.682-0.154h662.398l-162.099-162.662c-18.688-25.498-16.256-61.696 6.477-84.429s57.113-25.037 82.457-7.859l267.494 265.907c2.739 1.971 5.35 4.173 7.808 6.63l3.712 4.019c10.342 11.494 16.64 26.726 16.64 43.392 0 23.859-12.877 44.672-32 56.013l-261.657 260.787c-25.498 18.688-61.696 16.256-84.429-6.477s-25.037-57.113-7.859-82.457l161.868-162.841h-184.985z" />
<glyph unicode="&#xe916;" glyph-name="Arrow_long_top" d="M392.243 550.936v-477.519l0.512-8.294 0.23-1.613c4.813-31.232 32.128-55.117 64.282-55.117s58.087 22.682 63.847 52.736l0.998 7.296 0.154 6.682 0.026 189.978v287.284l-0.026 185.14 162.663-162.1c25.498-18.688 61.696-16.256 84.429 6.477s25.037 57.114 7.859 82.458l-265.908 267.495c-1.971 2.739-4.173 5.35-6.63 7.808l-4.019 3.712c-11.494 10.342-26.726 16.64-43.392 16.64-23.859 0-44.672-12.877-56.013-32l-260.788-261.658c-18.688-25.498-16.256-61.696 6.477-84.429s57.114-25.037 82.458-7.859l162.842 161.869v-184.987z" />
<glyph unicode="&#xe917;" glyph-name="Arrow_skew_lb" d="M510.323 313.746l491.187 491.52 4.424 5.567c26.913 36.72 23.411 88.851-9.328 121.59-32.739 32.775-82.252 36.057-118.714 11.318l-8.443-6.415-6.968-6.636-674.531-674.533-0.59 330.704c-6.931 44.979-46.269 79.376-92.575 79.376s-83.653-32.665-91.948-75.947l-1.622-543.209c-0.811-4.793-1.217-9.696-1.217-14.673l0.332-7.89c1.143-22.231 10.249-44.167 27.245-61.127 24.296-24.296 58.583-32.37 89.625-24.443l532.001 0.885c45.015 6.931 79.376 46.269 79.376 92.575 0 46.269-32.665 83.653-75.947 91.948l-330.666 0.995 188.356 188.394z" />
<glyph unicode="&#xe918;" glyph-name="Arrow_skew_lt" d="M510.323 582.254l491.187-491.52 4.424-5.567c26.913-36.72 23.411-88.851-9.328-121.59-32.739-32.775-82.252-36.057-118.714-11.318l-8.443 6.415-6.968 6.636-674.531 674.533-0.59-330.704c-6.931-44.979-46.269-79.376-92.575-79.376s-83.653 32.665-91.948 75.947l-1.622 543.209c-0.811 4.793-1.217 9.696-1.217 14.673l0.332 7.89c1.143 22.231 10.249 44.167 27.245 61.127 24.296 24.296 58.583 32.37 89.625 24.443l532.001-0.885c45.015-6.931 79.376-46.269 79.376-92.575 0-46.269-32.665-83.653-75.947-91.948l-330.666-0.995 188.356-188.394z" />
<glyph unicode="&#xe919;" glyph-name="Arrow_skew_rb" d="M513.566 313.746l-491.187 491.518-4.424 5.567c-26.913 36.72-23.411 88.851 9.328 121.59 32.738 32.775 82.252 36.057 118.714 11.318l8.443-6.415 6.968-6.636 674.53-674.531 0.59 330.703c6.931 44.978 46.269 79.376 92.575 79.376s83.653-32.665 91.948-75.947l1.622-543.208c0.811-4.793 1.217-9.696 1.217-14.673l-0.332-7.89c-1.143-22.231-10.249-44.167-27.245-61.127-24.296-24.296-58.583-32.37-89.625-24.443l-532 0.885c-45.015 6.931-79.376 46.269-79.376 92.575 0 46.269 32.665 83.653 75.947 91.948l330.665 0.995-188.356 188.394z" />
<glyph unicode="&#xe91a;" glyph-name="Arrow_skew_rt" d="M513.566 582.254l-491.187-491.518-4.424-5.567c-26.913-36.72-23.411-88.851 9.328-121.59 32.738-32.775 82.252-36.057 118.714-11.318l8.443 6.415 6.968 6.636 674.53 674.531 0.59-330.703c6.931-44.978 46.269-79.376 92.575-79.376s83.653 32.665 91.948 75.947l1.622 543.208c0.811 4.793 1.217 9.696 1.217 14.673l-0.332 7.89c-1.143 22.231-10.249 44.167-27.245 61.127-24.296 24.296-58.583 32.37-89.625 24.443l-532-0.885c-45.015-6.931-79.376-46.269-79.376-92.575 0-46.269 32.665-83.653 75.947-91.948l330.665-0.995-188.356-188.394z" />
<glyph unicode="&#xe91b;" glyph-name="change_room" horiz-adv-x="1067" d="M55.164 175.102c0 5.327 192.759 177.865 208.511 177.865 20.164 0 208.454-163.945 208.454-177.865 0-14.092-4.239-18.388-18.388-18.388l-24.517-122.644c0-34.37-21.195-42.905-55.164-42.905h-226.9c-28.642 0-42.963 14.321-42.963 42.905l-30.647 122.644c-14.149 0-18.388 4.296-18.388 18.388zM802.255 268.016l105.287-0.917c0-90.050-37.693-152.030-84.207-197.858-25.491-25.090-50.868-40.328-86.613-54.419-26.408-10.426-105.115-15.524-105.115-35.917v-36.776c179.756 0 337.285 138.683 337.285 312.711l-166.638 13.175zM98.069 653.419l61.351-18.388c0 91.31 37.177 151.4 84.207 197.858 21.882 21.596 55.737 42.333 86.613 54.419 26.293 10.311 105.115 15.581 105.115 35.917l-36.776 36.776c-144.297 0-300.508-159.535-300.508-306.582zM594.831 714.77c0.802 36.49 68.167 88.503 94.403 107.922 22.627 16.784 92.455 88.274 114.051 88.274 14.665 0 202.382-165.893 202.382-177.808l-42.905-153.291c0-19.877-22.283-30.704-42.963-30.704h-239.159c-28.642 0-42.905 14.321-42.905 42.963l-42.905 122.644zM539.61 745.417v-30.647c0-23.544 24.632-30.131 49.035-30.704v-122.644c0-39.296 37.864-67.423 79.739-67.423h275.934c32.136 0 67.48 27.382 67.48 61.293l18.388 128.773c14.779 0 36.833 22.054 36.833 36.833v18.388c0 22.283-227.76 220.713-257.605 220.713h-12.259c-32.537 0-257.547-200.664-257.547-214.585zM0 181.232v-6.129c0-32.079 18.846-46.514 49.035-49.035v-91.997c0-61.408 24.804-98.069 85.868-98.069h263.676c44.337 0 79.739 24.517 79.739 67.423v122.644c30.532 0.687 55.164 14.493 55.164 42.905 0 38.323-87.816 99.616-114.911 124.305-16.727 15.237-123.389 108.724-136.507 108.724h-24.517c-30.761 0-257.547-198.144-257.547-220.771z" />
<glyph unicode="&#xe91c;" glyph-name="check" d="M386.287 334.2l487.462 455.134 106.219-101.205-527.599-583.851-75.469-75.401-75.367 75.401-301.534 306.312 108.1 112.845z" />
<glyph unicode="&#xe91d;" glyph-name="check_round" d="M438.228 354.9l-206.068 160.557-55.959-55.959 250.181-250.181 421.383 421.383-55.959 55.959-353.578-331.759zM512.012 960c-282.729 0-512.012-229.284-512.012-512.012 0-282.701 229.284-511.985 512.012-511.985 282.701 0 511.985 229.284 511.985 511.985 0 282.729-229.284 512.012-511.985 512.012zM512.012 909.852c255.014 0 461.809-206.822 461.809-461.865 0-255.014-206.794-461.809-461.809-461.809-255.042 0-461.865 206.794-461.865 461.809 0 255.042 206.822 461.865 461.865 461.865z" />
<glyph unicode="&#xe91e;" glyph-name="clean" horiz-adv-x="1032" d="M569.486 473.36c22.601-14.815 45.126-29.706 67.727-44.522-92.52-109.83-195.925-204.165-361.54-209.684 10.658-48.301 42.632-69.164 84.206-77.554 44.144 5.518 82.996 20.107 113.912 47.848-13.757-31.521-31.294-62.058-62.739-89.119 11.867-26.078 47.394-39.004 99.021-42.934 74.152 23.508 135.606 62.663 189.879 110.586-24.491-49.737-49.586-99.021-94.108-135.379 14.891-31.747 52.61-36.131 100.684-28.043 103.405 96.3 127.291 212.48 171.662 323.52 26.456-16.478 52.836-32.957 79.292-49.511-44.597-111.191-81.107-219.056-166.219-318.909-7.181-8.466-34.998-21.77-97.963-23.659-255.338 9.751-381.042 83.374-545.901 278.998-20.485 38.021 2.948 64.099 25.927 75.135 188.367-11.792 313.844 57.825 396.16 183.227zM256.322 748.2c21.845 0 39.608-17.763 39.608-39.608 0-21.921-17.763-39.608-39.608-39.608-21.921 0-39.608 17.688-39.608 39.608 0 21.845 17.688 39.608 39.608 39.608zM64.402 793.629c35.527 0 64.326-28.799 64.326-64.401 0-35.527-28.799-64.326-64.326-64.326-35.602 0-64.401 28.799-64.401 64.326 0 35.602 28.799 64.401 64.401 64.401zM226.993 583.945c51.476 0 93.276-41.725 93.276-93.276 0-51.476-41.8-93.201-93.276-93.201s-93.276 41.725-93.276 93.201c0 51.551 41.8 93.276 93.276 93.276zM808.875 653.335l117.238-61.076c33.032 94.032 65.989 188.14 99.021 282.248 22.525 60.773-17.159 109.83-44.597 72.641l-171.662-293.812zM599.267 532.771c122.151-53.366 244.302-106.731 366.454-160.097 17.31 36.812 22.903 72.716 11.565 107.336-78.688 40.667-157.376 81.409-236.063 122.151-25.851 4.989-51.778 6.047-77.629-6.652-24.869-14.589-46.109-35.905-64.326-62.739z" />
<glyph unicode="&#xe91f;" glyph-name="Close" d="M107.315 936.784l405.742-407.677 411.426 409.491c17.473 18.017 61.548 24.97 84.885 1.632 22.975-22.975 15.417-66.747-2.177-83.676l-411.971-410.036 409.129-411.003c18.017-17.473 25.030-61.548 1.632-84.885-22.975-22.975-66.747-15.417-83.676 2.177l-409.612 411.547-407.436-405.501c-1.511-1.995-3.144-3.869-4.958-5.623-22.914-22.975-60.097-22.914-83.071 0.060-22.975 22.914-22.975 60.036 0 83.011 1.874 1.874 3.869 3.688 5.985 5.26l407.253 405.38-405.863 407.798c-1.995 1.511-3.869 3.144-5.623 4.958-22.975 22.914-22.914 60.097 0.060 83.071 22.914 22.975 60.097 22.975 83.011 0 1.935-1.874 3.688-3.869 5.26-5.985z" />
<glyph unicode="&#xe920;" glyph-name="data_Column" horiz-adv-x="987" d="M767.987 229.066h109.453v-220.61h-109.453v220.61zM695.532 252.65l-1.649-242.49h-35.403c0 89.772 0 179.6 0 269.428 0 44.914 0 89.827 0 134.742 0.055 46.288-18.251 70.751-63.99 70.751h-134.742c-30.071 0-57.228-22.814-57.228-52.225v-422.695h-37.052v606.308c0 25.178-25.783 50.521-52.225 50.521h-151.563c-26.772 0-52.225-24.958-52.225-50.521v-606.308h-37.052v949.836h-72.401v-1024h986.946l-35.348 74.16-1.704 239.137c0 26.607-24.298 52.225-48.872 52.225h-156.621c-23.749 0-48.322-25.013-48.872-48.872zM291.363 594.533v-584.373h-107.804v584.373h107.804zM474.921 410.975h109.453v-402.519h-109.453v402.519z" />
<glyph unicode="&#xe921;" glyph-name="date_Shift" d="M212.445 606.89v81.579h334.779v-83.695h45.056v83.695h81.579c20.514 0 40.755-18.193 40.755-38.639v-139.502h-669.557v139.502c0 19.115 22.255 38.059 42.837 38.707 25.805 0.853 53.487-0.068 79.496-0.068v-83.865l45.056 2.287zM141.653 207.736l-2.15-45.056h180.395l-2.287 45.056h-175.957zM139.502 330.069h180.258v45.056h-180.258v-45.056zM630.919 162.68h128.751v45.056h-81.544v83.695h-47.206v-128.751zM480.698 190.567c0 83.251 78.643 167.39 160.973 167.39h23.586c86.562 0 163.089-83.661 163.089-171.656 0-93.081-78.302-173.841-171.656-173.841h-8.602c-86.187 0-167.39 81.886-167.39 167.39v10.718zM442.059 192.717v-4.267c0-118.886 90.931-214.63 208.179-214.63h10.718c117.794 0 206.029 97.621 206.029 216.746 0 116.497-95.437 203.912-210.295 208.315-113.868 4.369-214.63-95.3-214.63-206.165zM167.389 733.526h-75.128c-54.033 0-92.262-38.4-92.262-92.296v-515.037c0-44.305 17.818-68.164 45.465-85.402 24.815-15.496 79.94-13.312 119.773-13.312 45.124 0 83.217-2.15 128.751-2.15 31.846 0 109.465-14.95 109.465 19.319 0 32.87-51.405 23.62-83.695 23.62-35.772 0-71.543 0-107.315 0s-71.509 0.034-107.281 0c-37.035-0.034-60.108 11.23-60.108 47.206v349.797h721.064v186.709c0 39.219-42.291 81.544-81.544 81.544h-85.845v55.808h-45.056v-55.808h-341.23v55.808h-45.056v-55.808z" />
<glyph unicode="&#xe922;" glyph-name="date_time" d="M511.958 960c-282.688 0-511.959-229.311-511.959-511.999 0-149.125 63.738-283.333 165.493-376.904 25.116-24.31 40.436-35.84 70.309-54.304 79.702-51.119 174.483-80.791 276.157-80.791 109.898 0 211.734 34.63 295.145 93.611 33.22 25.398 48.66 39.589 67.528 57.005 92.281 92.603 149.367 220.361 149.367 361.382 0 282.688-229.311 511.999-512.039 511.999zM525.101 463.482h355.981c10.966 0.161 26.688-11.248 26.688-25.64 0-14.151-15.844-25.318-26.487-25.116h-378.355c-0.968-0.121 3.749-0.202-1.935-0.202l-2.016 0.040c-6.329 0.282-12.054 4.031-16.448 8.829l-0.040 0.040c-4.556 4.314-8.023 9.837-8.345 15.924l-0.040 2.056c0 5.684 0.081 1.129 0.242 2.177v377.911c-0.161 10.966 11.248 26.688 25.64 26.688 14.151 0 25.318-15.844 25.116-26.487v-356.222zM512.079 905.776c252.693 0 457.695-205.001 457.695-457.816 0-252.693-205.001-457.695-457.695-457.695-252.814 0-457.816 205.001-457.816 457.695 0 252.814 205.001 457.816 457.816 457.816z" />
<glyph unicode="&#xe923;" glyph-name="edit" horiz-adv-x="975" d="M77.264 32.144c-45.526-3.789-86.643 10.186-75.401 78.134 12.546 54.719 25.154 109.499 37.701 164.279 15.341 42.048 37.887 78.879 66.457 111.3 180.18 180.18 360.36 360.36 540.478 540.478 44.47 33.726 91.425 44.408 141.92 21.552 37.701-39.502 75.401-79.003 113.102-118.505 35.402-44.284 42.731-93.289 0-150.802-174.777-173.907-349.553-347.814-524.391-521.72-35.154-34.036-71.985-54.594-109.499-69.066-63.476-18.571-126.89-37.142-190.366-55.65zM123.908 25.312h851.025v-89.314h-851.025v89.314zM643.641 779.943l105.152-105.152 50.185 49.998c17.888 24.099 14.782 44.657 0 63.165-15.776 16.521-31.614 33.104-47.39 49.626-21.117 9.565-40.744 5.093-59.377-9.006l-48.57-48.632zM704.26 630.384l-105.089 105.152-411.787-411.724 104.779-104.779c74.097 73.91 283.033 282.537 412.098 411.352zM253.22 185.803l-100.369 100.369c-6.894-9.938-12.546-20.807-16.894-32.608-5.279-22.918-10.497-45.837-15.776-68.755-4.72-28.508 12.484-34.347 31.552-32.732 26.583 7.764 53.166 15.527 79.749 23.291 7.329 2.795 14.534 6.211 21.738 10.434z" />
<glyph unicode="&#xe924;" glyph-name="email" d="M62.31 602.828c0 22.477 14.95 38.912 36.966 38.912h755.199c18.586 0 36.966-16.486 36.966-35.021v-525.516c0-19.251-17.869-35.021-36.966-35.021h-755.199c-22.016 0-36.966 16.435-36.966 38.912v517.734zM488.55 260.25c13.978 0 153.856 110.797 175.155 126.515 29.184 21.504 57.139 43.059 86.784 65.024 15.155 11.264 28.467 21.453 43.315 32.614 13.21 9.933 33.434 19.354 33.434 40.55v3.891c0 12.186-15.104 27.238-27.29 27.238-24.883 0-66.253-38.861-84.019-52.224-25.958-19.558-50.33-37.99-76.698-57.549-19.61-14.541-147.046-107.622-152.627-115.968-38.246 25.6-291.481 225.74-309.453 225.74h-1.946c-15.104 0-31.13-11.059-31.13-25.293v-11.674c0-18.534 65.331-59.29 80.896-70.861 29.389-21.811 56.269-42.394 85.657-64.205 29.696-22.016 57.498-43.008 86.784-65.075 17.101-12.902 69.069-58.726 91.136-58.726zM0 81.203c0-56.064 46.234-97.28 103.168-97.28h747.417c52.787 0 103.168 41.421 103.168 89.497v541.081c0 46.131-49.971 89.497-99.277 89.497h-755.199c-53.504 0-99.277-43.776-99.277-97.28v-525.516z" />
<glyph unicode="&#xe925;" glyph-name="footer_logo" d="M547.587 519.332c-3.236 1.604-6.083 1.010-8.486-1.809-1.632-3.645-1.038-6.287 1.809-7.892 8.486-5.25 14.752-9.905 18.787-13.947 2.847-2.43 5.666-2.635 8.513-0.621 2.014 2.847 2.014 5.878 0 9.107-6.083 5.257-12.937 10.301-20.623 15.162zM501.677 475.498c-5.625 0-10.192-4.567-10.192-10.192s4.567-10.185 10.192-10.185c5.625 0 10.185 4.56 10.185 10.185s-4.56 10.192-10.185 10.192zM71.182 535.962c-39.206 0-71.182-31.976-71.182-71.182s31.976-71.182 71.182-71.182c39.206 0 71.182 31.976 71.182 71.182s-31.976 71.182-71.182 71.182zM71.182 490.878c14.377 0 26.098-11.721 26.098-26.098s-11.721-26.098-26.098-26.098c-14.377 0-26.098 11.721-26.098 26.098s11.721 26.098 26.098 26.098zM207.893 465.763h20.125c12.329 0 18.787 5.912 19.306 17.688-0.519 10.206-9.107 15.319-25.764 15.319h-13.667v-33.007zM193.843 516.226h-17.108v-17.108h17.108v17.108zM207.893 385.256h-48.299v131.072h17.074v17.067h53.753c41.322-1.099 62.512-17.722 63.611-49.944-0.546-34.864-21.224-52.306-61.993-52.306h-24.146v-45.889zM159.58 550.4v-17.108h-17.108v17.108h17.108zM303.527 447.010v83.736h48.292v-88.583c-1.065-18.753 6.697-27.887 23.361-27.341 15.005-0.546 22.528 8.588 22.528 27.341v88.583h48.292v-83.736c1.099-45.063-22.528-67.359-70.82-66.806-48.845-1.099-72.718 21.19-71.653 66.806zM934.844 511.44h57.003c7.687-0.382 11.127-3.823 10.301-10.295-1.195-5.666-3.031-11.127-5.461-16.377-2.41-4.451-5.434-6.26-9.079-5.461-4.041 2.021-5.052 5.25-3.031 9.701 4.84 8.103 4.635 11.721-0.621 10.923h-109.138c-2.43 0-3.645-1.632-3.645-4.867v-6.055c-0.416-4.035-2.437-6.048-6.055-6.048-4.062 0-6.083 2.014-6.083 6.048v12.138c-0.799 7.27 2.642 10.711 10.322 10.295h51.541c-0.799 1.632-2.219 4.246-4.239 7.892-1.632 3.236-0.826 5.673 2.403 7.277 3.236 1.625 6.083 1.004 8.513-1.816 0.389-1.632 1.604-4.035 3.625-7.27 1.632-3.236 2.847-5.25 3.645-6.083zM983.361 465.954h-50.326v-23.026h48.517c4.035-0.416 6.26-2.43 6.649-6.083-0.389-4.035-2.615-6.048-6.649-6.048h-48.517v-35.785h60.621c3.652 0 5.666-1.816 6.083-5.461 0-4.035-1.836-6.26-5.461-6.649h-128.567c-4.451 0.389-6.881 2.403-7.27 6.055 0.389 4.035 2.615 6.055 6.676 6.055h55.159v35.785h-43.65c-4.444 0-6.881 2.014-7.27 6.048 0.389 3.652 2.826 5.666 7.27 6.083h43.65v23.026h-43.049c-4.451 0-7.066 1.836-7.871 5.461 0 4.062 2.225 6.287 6.656 6.676h106.728c4.062-0.389 6.287-2.43 6.676-6.055-0.389-4.035-2.43-6.083-6.055-6.083zM963.332 398.657c-2.819 4.035-8.486 10.301-16.971 18.787-3.625 2.847-4.246 5.666-1.809 8.513 2.819 2.403 6.055 2.225 9.701-0.621 4.84-4.035 10.711-10.090 17.592-18.193-0.41 0.416 0 0 1.195-1.215 2.43-4.035 2.225-6.854-0.601-8.486-3.229-2.021-6.26-1.604-9.107 1.215zM829.434 498.715h-54.566v-18.193h57.624c3.229-0.41 5.045-2.43 5.455-6.055-0.41-4.062-2.225-6.076-5.455-6.076h-57.624v-21.217h40.619c8.902 0.41 13.148-3.652 12.759-12.138v-38.81c0.389-9.291-3.441-13.742-11.537-13.326h-81.251c-8.895-0.416-12.937 3.625-12.131 12.111v40.025c-1.215 8.486 3.441 12.547 13.947 12.138h25.457v51.541h-41.834c-4.041 0-5.85-1.816-5.461-5.461v-53.972c-0.806-20.207-4.84-36.591-12.138-49.111-2.403-2.847-5.25-3.645-8.486-2.43-3.236 2.014-4.035 4.656-2.403 7.892 7.27 12.52 10.889 27.088 10.889 43.65v58.839c-0.799 8.875 3.052 13.114 11.544 12.725h50.319c-0.41 0.806-1.004 2.225-1.809 4.246-0.826 1.215-1.42 2.615-1.836 4.239-1.604 3.652-0.799 6.267 2.43 7.892 3.236 1.222 6.083 0.184 8.492-3.052 2.43-4.84 4.239-9.284 5.455-13.326h51.541c2.847-0.41 4.451-2.43 4.867-6.076-0.416-4.041-2.021-6.055-4.867-6.055zM736.058 430.797v-31.546c-0.416-2.819 1.42-4.239 5.455-4.239h67.325c4.84 0 7.066 1.632 6.649 4.861v30.925c0 2.819-1.393 4.239-4.239 4.239h-70.328c-3.645 0-5.277-1.42-4.861-4.239zM576.697 519.933h94.597c4.84-0.389 7.475-2.615 7.892-6.649-0.826-3.652-3.652-5.461-8.513-5.461h-29.703v-13.947h17.592c8.875-0.416 13.53-4.656 13.947-12.759v-84.268c-0.416-8.513-4.867-12.759-13.353-12.759h-72.759c-9.312-0.389-13.558 4.062-12.752 13.353v83.081c0 8.902 4.656 13.353 13.967 13.353h12.732v13.947h-23.647c-4.451 0-6.881 2.014-7.298 6.055 0.416 3.645 2.847 5.666 7.298 6.055zM629.453 507.822h-17.592v-13.947h17.592v13.947zM544.536 481.116c6.465-4.424 13.141-9.079 20.023-13.947 2.826-2.819 3.441-5.844 1.816-9.079-2.819-2.847-5.666-2.847-8.486 0-6.472 4.84-12.943 9.291-19.408 13.326-3.652 2.43-4.656 5.277-3.031 8.513 2.437 2.819 5.461 3.236 9.086 1.188zM585.182 476.283v-53.979h75.79v15.162h-19.408c-8.486-0.41-12.527 4.246-12.111 13.947v30.324h-16.998c-0.389-27.505-5.434-43.465-15.135-47.916-3.652-2.021-6.472-1.604-8.513 1.215-2.41 3.652-2.021 6.472 1.215 8.486 7.298 3.236 10.711 15.968 10.322 38.216h-10.916c-3.236 0-4.656-1.809-4.246-5.455zM657.346 481.737h-16.377v-27.887c-0.416-3.236 1.215-4.663 4.861-4.246h15.142v28.488c0 2.43-1.195 3.645-3.625 3.645zM557.889 440.497c0.799 3.645 3.024 5.045 6.67 4.239 3.652-1.215 5.257-3.618 4.84-7.27-5.639-18.186-13.947-34.563-24.863-49.132-3.236-3.236-6.649-3.413-10.301-0.594-2.819 2.819-2.635 5.871 0.594 9.107 9.708 9.284 17.388 23.832 23.061 43.65zM585.182 410.173v-10.923c0-2.014 1.215-3.024 3.625-3.024h67.918c2.847 0 4.246 1.215 4.246 3.645v10.301h-75.79z" />
<glyph unicode="&#xe926;" glyph-name="form_time" horiz-adv-x="1013" d="M136.664 960.001c-75.181 0-136.664-61.7-136.664-137.099v-749.802c0-75.399 61.482-137.099 136.664-137.099h311.38c32.671 5.49 31.312 49.197 0 54.633-94.045 0-188.035 0-282.025 0-67.082 0-111.984 48.11-111.984 115.463v695.712c0 67.353 40.010 103.503 107.2 103.503h162.54v-130.847c-0.272-1.576-0.381-3.262-0.381-4.892 0-20.059 16.254-36.313 36.313-36.313s36.367 16.254 36.367 36.313c0 1.576-0.109 3.099-0.326 4.621v131.119h267.022v-130.847c-0.272-1.576-0.381-3.262-0.381-4.892 0-20.059 16.254-36.313 36.313-36.313s36.367 16.254 36.367 36.313c0 1.576-0.109 3.099-0.326 4.621v131.119h119.16c67.19 0 104.591-35.77 104.591-103.014v-393.193c5.599-28.92 49.034-33.432 54.035 0 0 137.913 0 275.828 0 413.796 0 75.399-61.482 137.099-136.664 137.099h-739.202zM685.33 170.026l-146.394 58.438 139.762-139.762 235.438 235.438-31.258 31.258-197.549-185.372zM726.535 508.096c-157.973 0-286.048-128.075-286.048-286.048s128.075-286.048 286.048-286.048c157.973 0 286.048 128.075 286.048 286.048s-128.075 286.048-286.048 286.048zM726.535 480.1c142.48 0 257.997-115.572 257.997-258.052s-115.517-257.997-257.997-257.997c-142.48 0-258.052 115.517-258.052 257.997s115.572 258.052 258.052 258.052zM233.045 421.119h142.263c15.493 0.217 37.781-15.982 37.781-36.422 0-20.059-22.397-35.933-37.509-35.607h-142.861c-1.468-0.217-3.044-0.326-4.621-0.326-20.059 0-36.259 16.308-36.259 36.367s16.2 36.313 36.259 36.313c1.685 0 3.316-0.109 4.947-0.326zM233.045 544.845h219.783c15.493 0.272 37.781-15.928 37.781-36.367 0-20.059-22.397-35.933-37.509-35.607h-220.379c-1.468-0.217-3.044-0.326-4.621-0.326-20.059 0-36.259 16.308-36.259 36.367s16.2 36.313 36.259 36.313c1.685 0 3.316-0.109 4.947-0.381zM233.045 677.322h306.706c15.547 0.217 37.835-15.982 37.835-36.367 0-20.114-22.397-35.933-37.509-35.661h-307.357c-1.468-0.163-3.044-0.272-4.621-0.272-20.059 0-36.259 16.254-36.259 36.367 0 20.005 16.2 36.259 36.259 36.259 1.685 0 3.316-0.109 4.947-0.326z" />
<glyph unicode="&#xe927;" glyph-name="Full" horiz-adv-x="1028" d="M135.589 14.931c12.061 17.971 66.337 67.349 85.482 86.534 29.182 29.141 56.866 56.826 86.048 85.967 22.908 22.908 166.43 156.473 166.43 177.601v12.142c0 13.64-16.716 30.356-30.356 30.356h-14.166c-17.93 0-155.786-146.679-177.601-168.454-29.141-29.182-56.826-56.866-85.967-86.048-19.185-19.144-68.563-73.461-86.534-85.482 0 64.071 0 128.182 0 192.252 0 56.178 16.797 149.755-40.474 149.755-19.428 0-38.45-17.768-38.45-38.45v-400.695c0-28.818 27.563-34.403 56.664-34.403h376.41c19.873 0 38.45 16.433 38.45 36.427v10.119c0 48.164-103.371 32.379-151.779 32.379-61.399 0-122.758 0-184.158 0zM556.521 925.601v-8.095c0-52.697 97.624-36.427 149.755-36.427 62.047 0 124.134 0 186.182 0-12.061-17.971-66.337-67.349-85.482-86.534-29.182-29.141-56.866-56.826-86.048-85.967-29.141-29.182-56.826-56.866-85.967-86.048-17.404-17.404-80.463-67.754-80.463-93.577v-10.119c0-16.513 19.144-30.356 36.427-30.356h6.071c21.087 0 155.623 144.493 178.572 167.483 29.506 29.465 57.554 57.514 87.020 87.020 18.861 18.821 70.061 76.456 86.534 87.505 0-62.735 0-125.47 0-188.206 0-50.552-15.987-153.803 34.403-153.803h4.047c23.111 0 40.474 16.068 40.474 38.45v396.647c0 22.22-21.897 36.427-44.522 36.427h-394.624c-14.854 0-32.379-17.404-32.379-34.403z" />
<glyph unicode="&#xe928;" glyph-name="Full_over" horiz-adv-x="1028" d="M2.024 373.122v-8.095c0-52.697 97.624-36.427 149.754-36.427 62.047 0 124.134 0 186.181 0-12.061-17.971-66.337-67.349-85.482-86.534-29.182-29.141-56.866-56.826-86.048-85.967-29.141-29.182-56.826-56.866-85.967-86.048-17.404-17.404-80.463-67.754-80.463-93.576v-10.119c0-16.513 19.144-30.356 36.427-30.356h6.071c21.087 0 155.623 144.493 178.572 167.483 29.506 29.465 57.554 57.514 87.019 87.019 18.861 18.82 70.061 76.456 86.534 87.505 0-62.735 0-125.47 0-188.205 0-50.552-15.987-153.802 34.403-153.802h4.047c23.111 0 40.474 16.068 40.474 38.45v396.647c0 22.22-21.897 36.427-44.522 36.427h-394.623c-14.854 0-32.379-17.404-32.379-34.403zM690.085 565.375c12.061 17.971 66.337 67.349 85.482 86.534 29.182 29.141 56.866 56.826 86.048 85.967 22.908 22.908 166.43 156.473 166.43 177.601v12.142c0 13.64-16.716 30.356-30.356 30.356h-14.166c-17.93 0-155.786-146.679-177.601-168.454-29.141-29.182-56.826-56.866-85.967-86.048-19.185-19.144-68.563-73.461-86.534-85.482 0 64.071 0 128.182 0 192.253 0 56.178 16.797 149.754-40.474 149.754-19.428 0-38.45-17.768-38.45-38.45v-400.694c0-28.818 27.563-34.403 56.664-34.403h376.41c19.873 0 38.45 16.433 38.45 36.427v10.119c0 48.164-103.371 32.379-151.778 32.379-61.399 0-122.758 0-184.157 0z" />
<glyph unicode="&#xe929;" glyph-name="getpay" d="M398.233 545.229c-84.224-0.154-168.96-0.154-253.748-0.154-84.275 0-144.486-28.928-144.486-109.824v-361.217c0-69.478 62.362-104.090 135.782-104.090h534.682c78.285 0 135.834 33.69 135.834 109.824v75.162c-1.741-0.154-47.309-12.186-48.026-12.646-8.858-5.939-4.045-41.216-3.994-53.811 0.154-36.045-18.995-66.458-52.019-66.458h-586.7c-35.021 0-63.539 23.654-63.539 57.754v202.342h372.788c-2.867 12.288-17.357 34.867-22.784 49.459-3.686 9.882-8.806 48.794-20.582 48.794h-329.421v63.539c0 20.378 28.774 49.152 49.101 49.152h283.188l13.926 52.173zM604.005 441.037l-5.786-34.662c-8.96-4.762-14.49-6.349-14.49-20.224v-2.918c0-9.37 12.595-17.357 23.142-17.357l63.59-40.448c0-9.728 5.12-20.224 14.438-20.224h11.571c11.315 0 14.438 14.285 14.438 26.010l72.243 37.581c9.37 0 14.438 10.496 14.438 20.224 0 6.963-10.342 17.357-17.306 17.357l-20.224 31.795c13.005 0 28.877 5.427 28.877 17.306v8.704c0 6.707-7.68 14.438-14.438 14.438h-37.581c3.891 14.643 46.234 45.517 46.234 57.805v2.867c0 13.517-6.707 20.224-20.224 20.224h-2.867c-7.782 0-64.205-60.877-66.509-69.325-20.378 5.427-54.016 69.325-78.029 69.325h-2.867c-6.758 0-14.438-7.68-14.438-14.438v-5.786c0-16.538 36.813-46.592 46.234-60.672-26.778 0-54.938 6.605-54.938-20.224 0-9.933 6.093-15.104 14.49-17.357zM479.692 438.169v2.867c0 107.674 91.546 210.945 193.638 210.945h23.142c105.574 0 202.292-94.362 202.292-199.374v-28.928c0-95.795-101.99-190.719-202.292-190.719h-11.571c-108.442 0-205.21 97.126-205.21 205.21zM427.673 441.037c0-135.219 115.405-260.096 245.657-260.096h23.142c136.192 0 257.228 120.576 257.228 254.31v2.918c0 135.117-112.845 265.83-239.872 265.83h-40.499c-124.211 0-245.657-122.778-245.657-245.606v-17.357z" />
<glyph unicode="&#xe92a;" glyph-name="Help" d="M512.042 960c-282.73 0-512.042-229.272-512.042-512.002 0-282.689 229.312-512.002 512.042-512.002 282.689 0 511.962 229.312 511.962 512.002 0 282.73-229.272 512.002-511.962 512.002zM469.953 270.249c-0.323 11.046-0.484 19.392-0.484 24.915 0 32.696 4.556 60.956 13.868 84.662 6.813 17.819 17.698 35.84 32.857 54.143 11.046 13.264 31.123 32.534 59.828 57.933 28.906 25.6 47.531 45.798 56.24 60.956 8.668 14.997 12.941 31.567 12.941 49.426 0 32.373-12.619 60.795-37.896 85.428-25.278 24.471-56.361 36.767-93.007 36.767-35.518 0-65.069-11.208-88.734-33.3-23.826-22.254-39.307-57.006-46.725-104.215l-85.589 10.28c7.74 63.133 30.64 111.632 68.697 145.255s88.411 50.354 150.939 50.354c66.318 0 119.212-17.981 158.68-54.143 39.468-36.001 59.223-79.582 59.223-130.903 0-29.511-6.975-56.844-20.843-81.799-13.909-24.915-40.92-55.393-81.316-91.072-27.172-24.189-44.871-41.847-53.216-53.216-8.386-11.53-14.554-24.633-18.464-39.348-4.112-14.836-6.329-38.823-6.975-72.124h-80.026zM464.873 103.184v94.902h94.741v-94.902h-94.741zM512.042 909.848c254.993 0 461.81-206.816 461.81-461.85 0-254.993-206.816-461.81-461.81-461.81-255.074 0-461.89 206.816-461.89 461.81 0 255.033 206.816 461.85 461.89 461.85z" />
<glyph unicode="&#xe92b;" glyph-name="Hotel" d="M114.517 717.107c0 12.459 10.718 23.177 23.177 23.177h395.298c12.459 0 23.177-10.718 23.177-23.177v-696.629h-441.651v696.629zM218.112 385.843c0-11.332 11.469-21.811 23.177-21.811h188.109c11.708 0 23.177 10.479 23.177 21.811s-11.469 21.811-23.177 21.811h-188.109c-11.708 0-23.177-10.479-23.177-21.811zM218.112 554.871c0-11.332 11.469-21.811 23.177-21.811h188.109c11.708 0 23.177 10.479 23.177 21.811s-11.469 21.811-23.177 21.811h-188.109c-11.708 0-23.177-10.479-23.177-21.811zM218.112 245.418v-4.096c0-10.069 9.353-24.508 17.715-24.508h193.57c11.127 0 23.177 10.684 23.177 20.446 0 12.356-10.445 28.604-21.811 28.604h-192.205c-8.67 0-20.446-11.776-20.446-20.446zM65.434 718.47v-697.992h-42.257c-11.708 0-23.177-10.445-23.177-21.811 0-11.332 11.469-21.811 23.177-21.811h820.636c11.708 0 23.177 10.479 23.177 21.811 0 10.957-5.53 21.811-16.35 21.811h-38.161v425.336c0 38.025-32.87 70.895-70.895 70.895h-85.88c-11.708 0-23.177-10.479-23.177-21.811 0-52.088 130.867 9.079 130.867-44.988v-423.97h-163.601v691.165c0 39.902-32.324 72.226-72.226 72.226h-391.237c-37.82 0-70.895-33.007-70.895-70.861z" />
<glyph unicode="&#xe92c;" glyph-name="leave_shop" horiz-adv-x="898" d="M0.001 331.813h282.235v-168.715l287.789 285.040-287.789 284.985v-168.715h-282.235v-232.595zM377.343 862.752v97.249c120.118 0 229.187-0.11 349.305-0.11 92.136 2.089 165.087-57.778 171.739-152.553v-726.59c-12.369-93.511-85.539-144.527-164.152-144.746h-356.726l-0.165 97.304c118.964 0 238.312-0.11 357.332-0.11 39.526 0.99 63.495 25.288 67.343 59.372l-0.385 702.952c-0.99 36.063-17.262 64.265-68.278 67.728l-356.012-0.495z" />
<glyph unicode="&#xe92d;" glyph-name="links" d="M512.009 960c-282.729 0-512.009-229.281-512.009-512.009 0-282.711 229.281-511.991 512.009-511.991 282.711 0 511.991 229.281 511.991 511.991 0 282.729-229.281 512.009-511.991 512.009zM468.399 385.558c-16.469 24.097 12.411 45.077 30.764 30.746l45.113-44.57c9.494-7.41 16.994-0.562 29.478 11.305 61.455 64.536 122.911 129.071 184.366 193.606 6.522 9.765 6.885 20.328-1.268 30.166-15.889 16.759-31.779 33.518-47.65 50.295-12.139 9.186-20.962 5.852-30.094-1.25-25.51-24.314-51.020-48.628-76.511-72.924-23.299-14.476-43.664 12.846-29.025 30.329l97.999 91.622c12.356 10.708 30.365 17.592 47.668 5.019 29.677-31.018 59.354-62.017 89.049-93.017 10.853-10.726 17.013-36.272-3.768-59.1-76.928-78.794-153.856-157.57-230.766-236.346-12.809-11.36-33.192-9.965-44.117-0.67l-61.238 64.789zM556.488 506.422c16.469-24.097-12.411-45.077-30.764-30.746l-45.113 44.57c-9.494 7.41-16.994 0.562-29.478-11.305-61.455-64.536-122.911-129.071-184.366-193.606-6.522-9.765-6.885-20.328 1.268-30.166 15.889-16.759 31.779-33.518 47.65-50.295 12.139-9.186 20.962-5.852 30.094 1.25 25.51 24.314 51.020 48.628 76.511 72.924 23.299 14.476 43.664-12.846 29.025-30.329l-97.999-91.622c-12.356-10.708-30.365-17.592-47.668-5.019-29.677 31.018-59.354 62.017-89.049 93.017-10.853 10.726-17.013 36.272 3.768 59.1 76.928 78.794 153.856 157.57 230.766 236.346 12.809 11.36 33.192 9.965 44.117 0.67l61.238-64.789zM512.009 909.851c255.007 0 461.823-206.814 461.823-461.859 0-255.007-206.814-461.823-461.823-461.823-255.044 0-461.859 206.814-461.859 461.823 0 255.044 206.814 461.859 461.859 461.859z" />
<glyph unicode="&#xe92e;" glyph-name="merge_room" horiz-adv-x="1191" d="M128.047 960c-70.42 0-128.048-57.628-128.048-127.984l99.905-42.853c0 41.254 33.643 74.897 74.897 74.897h841.906c41.254 0 74.897-33.643 74.897-74.897l99.842-138.857v181.711c0 70.356-57.628 127.984-128.048 127.984h-935.351zM1191.446 329.932v230.192l-254.496-0.64-0.64 100.034-237.675-211.517 237.675-211.581-0.128 93.062 255.264 0.448zM1130.941 402.397l-246.375-0.192 0.32 88.904 246.055 0.256v-88.968zM0.001 329.932v230.192l254.496-0.64 0.64 100.034 237.675-211.517-237.675-211.581 0.128 93.062-255.264 0.448zM60.506 402.397l246.375-0.192-0.32 88.904-246.055 0.256v-88.968zM1091.606 245.695h99.842v-181.711c0-70.356-57.628-127.984-128.048-127.984h-935.351c-70.42 0-128.048 57.628-128.048 127.984v181.711l99.905-138.857c0-41.254 33.643-74.897 74.897-74.897h841.906c41.254 0 74.897 33.643 74.897 74.897v138.857z" />
<glyph unicode="&#xe92f;" glyph-name="msg" horiz-adv-x="1081" d="M540.361 960.001c-298.339 0-540.359-202.454-540.359-452.213 0-213.702 177.327-392.944 415.599-440.088 40.044-7.897 85.912-131.699 128.828-131.699 51.292 0 96.84 125.557 143.824 136.725 226.464 53.843 392.465 228.299 392.465 435.062 0 249.758-242.022 452.213-540.359 452.213zM247.525 577.665c44.751 0 81.126-36.375 81.126-81.126 0-44.831-36.375-81.126-81.126-81.126-44.831 0-81.126 36.295-81.126 81.126 0 44.751 36.295 81.126 81.126 81.126zM540.359 577.665c44.751 0 81.126-36.375 81.126-81.126 0-44.831-36.375-81.126-81.126-81.126s-81.126 36.295-81.126 81.126c0 44.751 36.375 81.126 81.126 81.126zM833.193 577.665c44.831 0 81.126-36.375 81.126-81.126 0-44.831-36.295-81.126-81.126-81.126-44.751 0-81.126 36.295-81.126 81.126 0 44.751 36.375 81.126 81.126 81.126zM540.359 882.066c247.285 0 447.746-167.755 447.746-374.757 0-171.345-137.523-315.966-325.14-360.558-39.007-9.253-76.738-113.273-119.255-113.273-35.577 0-73.547 102.584-106.732 109.125-197.509 39.087-344.365 187.538-344.365 364.706 0 207.002 200.461 374.757 447.746 374.757z" />
<glyph unicode="&#xe930;" glyph-name="password" horiz-adv-x="952" d="M61.862 546.524c-34.044 0-61.863-27.466-61.863-61.062v-488.4c0-33.596 27.82-61.062 61.863-61.062h828.696c34.044 0 61.863 27.466 61.863 61.062v488.4c0 33.596-27.82 61.062-61.863 61.062h-116.041v170.124c-26.638 286.425-522.866 360.429-580.981 0v-170.124h-131.672zM449.76 317.484v-186.486h26.122v186.486h-26.122zM92.913 508.331h766.571c30.295 0 55.050-24.495 55.050-54.319v-425.476c0-29.824-24.825-54.319-55.050-54.319h-766.571c-30.201 0-55.027 24.425-55.027 54.319v425.476c0 29.894 24.755 54.319 55.027 54.319zM231.069 546.524v137.401c26.429 350.622 515.772 270.087 501.060 0v-137.401h-501.060z" />
<glyph unicode="&#xe931;" glyph-name="pay" horiz-adv-x="958" d="M302.744 667.979v-1.814c0-29.081 90.597-97.743 108.628-124.626-29.686 0-59.372-0.055-89.058 0-28.861 0.055-48.047-13.139-48.047-40.956 0-24.079 18.361-40.956 42.715-40.956h122.866v-55.249h-122.866c-24.353 0-42.715-16.877-42.715-40.956 0-19.956 17.592-40.956 35.623-40.956h129.958v-92.576c0-25.508 17.262-42.77 42.77-42.77h3.573c15.283 0 35.568 20.34 35.568 35.623v101.537h122.921c24.353 0 42.715 16.877 42.715 40.956 0 14.073-6.652 24.738-14.678 31.61-13.194 11.16-18.196 7.531-35.183 7.531h-115.775v55.249h122.921c21.33 0 42.715 16.657 42.715 35.568v3.573c0 28.147-17.482 42.88-46.288 42.77-29.686-0.11-59.372 0-89.058 0 17.262 25.783 113.961 100.987 113.961 126.439 0 11.38-17.042 35.623-24.903 35.623-17.152 0-66.243-46.343-80.647-58.327-21.935-18.251-55.249-45.903-77.843-61.021-23.804 15.942-53.27 41.615-76.908 60.251-14.238 11.215-63.33 59.097-78.008 59.097h-3.573c-9.84 0-21.385-24.353-21.385-35.623zM0.003 338.521v-10.72c0-55.524 7.421-108.409 7.092-162.063-0.055-13.469 2.309-67.783 4.673-80.811 3.463-19.131 0.99-65.199 20.285-65.199 15.887 0 26.937 28.916 33.259 41.56 8.246 16.547 20.12 30.785 34.414 40.351 9.455-6.322 23.969-23.144 35.183-32.489 13.029-10.995 23.804-21.055 37.492-31.94 18.966-15.008 61.791-41.945 85.264-51.895 69.597-29.521 127.924-49.311 226.712-49.311h1.814c113.576 0 211.594 44.089 280.641 89.772 32.764 21.715 73.445 57.503 98.183 87.024 15.668 18.636 69.927 89.772 69.927 111.707 0 24.408-16.932 42.77-40.956 42.77-26.937 0-34.798-20.505-44.584-37.382-9.291-16.107-21.385-34.249-33.314-48.597-27.432-33.039-50.081-55.139-84.44-81.141-57.118-43.154-149.144-82.186-249.031-82.186-122.206 0-231.384 51.181-292.515 111.707-21.055 20.78-28.311 30.016-46.178 53.599-14.183 18.801-27.982 40.076-41.34 60.141-10.665 16.052-79.657 109.343-93.675 109.343-5.552 0-8.906-8.796-8.906-14.238zM23.147 666.165c0-25.453 17.262-42.715 42.77-42.715h1.759c25.508 0 61.626 67.508 77.293 88.343 19.736 26.167 58.217 63.55 85.429 81.911 66.408 44.859 142.107 80.866 252.22 80.866h10.665c110.113 0 224.183-58.932 279.157-114.455 35.623-35.953 57.008-68.277 87.408-108.463 12.479-16.492 73.555-108.353 89.332-108.353 6.982 0 8.906 8.796 8.906 16.052v1.759c0 58.107-6.487 110.278-7.037 165.691-0.165 15.008-1.649 66.353-4.013 81.471-2.474 15.613-3.408 68.058-19.241 68.058-18.361 0-27.542-26.662-34.414-40.351-8.576-17.097-20.23-31.665-35.018-41.56-7.531 5.003-25.398 23.529-34.304 31.555-12.974 11.709-22.484 20.45-36.613 31.060-27.322 20.505-50.686 34.633-82.846 50.741-54.699 27.377-133.751 52.225-214.893 52.225-126.33 0-216.212-36.668-292.021-87.243-42.22-28.147-66.793-53.709-101.097-89.442-14.403-15.008-73.445-94.885-73.445-117.15z" />
<glyph unicode="&#xe932;" glyph-name="pms" d="M240.538 472.013c0 59.494 50.995 116.019 107.418 116.019h12.902c53.658 0 107.366-42.291 107.366-94.515v-30.106c0-43.059-59.597-94.515-107.366-94.515h-17.203c-52.173 0-103.117 51.405-103.117 103.117zM124.57 72.5c5.632 8.448 18.227 30.054 30.054 30.054h30.054c14.848 0 16.64-3.174 30.106-4.301-2.765-33.075-54.886-25.754-90.214-25.754zM98.765 42.446c71.578 0 189.031 5.018 189.031 68.71 0 7.782-23.603 17.203-34.355 17.203h-141.773c-12.442 0-100.403-116.326-111.667-133.171l98.765 47.258zM743.168 72.5c0-28.723 78.797-32 107.418-38.656-12.032-17.971-89.19-41.933-90.214 4.301h-51.558c-13.21 0-17.203-12.595-17.203-25.805 0-17.51 28.57-25.754 47.258-25.754h73.062c37.99 0 107.366 25.088 107.366 60.16 0 22.886-82.176 32.256-107.366 34.355 4.454 16.64 21.658 17.152 42.957 17.152h12.851c14.131 0 16.128-8.653 17.203-21.453h51.558c13.21 0 17.203 12.595 17.203 25.754 0 15.77-26.317 21.504-43.008 21.504h-60.109c-34.406 0-107.418-22.733-107.418-51.558zM658.535 127.335l-87.194 1.024-80.486-0.358-82.739 0.358c-11.162 0-100.966-117.146-111.718-133.171h154.675c9.421 0 73.472 55.552 90.214 64.41l117.248 67.737zM631.501 231.476c-63.642 0-68.864 120.269 12.851 120.269h12.902c27.494 0 51.558-31.078 51.558-60.16v-4.301c0-29.491-31.334-55.808-64.461-55.808h-12.851zM618.599 407.604v-21.504c-8.448-4.454-12.698-8.602-25.805-8.602-14.234 0-8.96 8.602-17.152 8.602-18.381 0-34.355-13.261-34.355-30.054 0-2.765 9.677-12.39 12.851-17.203-7.168-30.72-8.704-27.392-38.656-34.355v-25.805c0-9.626 3.43-9.421 8.602-17.152h21.504c2.867-5.427 8.55-14.234 8.55-21.504 0-14.899-8.55-6.554-8.55-21.453v-4.301c0-10.342 15.411-25.805 25.754-25.805 15.206 0 13.005 12.902 21.453 12.902 16.179 0 8.141-2.816 25.805-4.301 0.358-15.36 1.894-30.054 17.203-30.054h12.851c11.622 0 11.878 2.048 21.504 4.301l51.558 21.453c9.062 7.936 25.754 17.92 25.754 34.406 0 11.878-3.328 10.291-13.466 13.056l9.165 29.901c15.36 0.307 30.054 1.843 30.054 17.152l-30.054 34.406c-2.765 11.776-8.602 17.459-8.602 25.754 0 6.861 12.902 10.291 12.902 17.203 0 14.746-19.712 24.576-30.054 30.054-3.328-2.202-18.176-12.902-21.504-12.902-16.179 0-8.090 2.816-25.754 4.301v12.902c0 10.035-7.117 17.152-17.203 17.152h-8.602c-12.083 0-18.022-3.942-25.754-8.55zM274.894 635.289c-11.622 7.782-23.040 25.754-38.656 25.754-19.2 0-55.808-28.672-55.808-47.258 0-21.555 12.237-24.934 21.402-38.605l-55.808-47.309c-20.89 0-25.754-29.44-25.754-51.558v-8.602c0-22.118 32.102-25.754 55.859-25.754 0.512-24.832 12.851-35.994 12.851-47.258 0-9.37-25.754-18.637-25.754-34.355v-8.602c0-11.52 30.669-47.258 47.258-47.258 12.595 0 32.922 17.203 38.502 25.395l47.411-55.45c7.629-11.418 15.258-21.504 34.355-21.504h30.106c11.827 0 20.736 13.978 25.754 21.504 0 50.995 11.213 27.853 51.558 47.258 15.206-10.189 20.019-25.805 42.957-25.805 13.107 0 51.558 34.611 51.558 47.258 0 26.061-21.504 30.413-21.504 38.656 0 7.475 17.562 39.782 21.504 47.258 32.051 0 55.859-1.997 55.859 30.054v34.406c0 13.875-15.616 21.453-30.106 21.453l-34.355 55.859c15.565 4.147 25.754 15.002 25.754 34.355 0 9.933-33.894 47.258-47.258 47.258-26.010 0-30.362-21.453-38.656-21.453-14.131 0-32.973 12.851-51.558 17.152v34.355c0 13.926-15.565 21.504-30.054 21.504h-25.754c-27.085 0-30.566-15.667-34.099-38.963-3.584-23.603-24.218-17.408-47.565-29.747z" />
<glyph unicode="&#xe933;" glyph-name="prod" horiz-adv-x="1076" d="M829.262 217.563c0 6.759 79.72 40.784 91.389 45.521 17.099 6.874 84.457 40.322 95.664 41.247v-206.348l-186.88-83.302-0.173 202.882zM582.419 304.331l186.88-83.244 0.173-206.002c-16.002 3.697-77.756 32.928-95.144 41.766-11.842 6.008-91.909 37.723-91.909 45.001v202.478zM493.571 298.901l0.116-197.048c0-7.279-80.067-38.994-91.909-45.001-17.388-8.839-79.142-38.069-95.144-41.766l0.347 199.763 186.592 84.053zM59.79 298.554l186.88-83.302 0.173-200.167-187.053 82.897v200.572zM90.639 352.567c2.6 3.466 179.139 84.804 187.053 84.804 4.333 0 181.45-79.951 187.053-84.804l-188.555-83.879-185.551 83.879zM619.044 358.344c32.928 7.683 161.577 79.027 181.277 79.027 13.344 0 148.349-72.268 177.406-79.027l-179.37-82.84-179.312 82.84zM341.352 763.299l187.111-84.746-0.058-256.606-187.053 82.955v258.397zM774.613 762.779l0.635-252.1c0-9.994-166.777-77.987-187.053-88.732l-0.173 256.895 186.592 83.937zM379.941 815.348c30.848 7.163 164.177 79.085 179.312 79.085 9.532 0 148.695-72.384 177.406-79.085-2.253-3.119-170.647-80.991-177.406-80.991-9.763 0-176.077 76.543-179.312 80.991zM281.562 836.549v-333.611c-16.233 0-118.194-51.529-141.532-60.945-22.356-8.954-47.832-20.277-69.322-30.906-12.882-6.412-59.848-29-70.651-31.541v-320.093c18.948-4.448 116.634-50.547 138.817-61.696 11.669-5.892 135.871-61.754 138.817-61.754 3.177 0 116.402 52.049 129.228 57.884 13.344 6.066 127.321 57.826 131.134 57.826 4.737 0 114.381-50.663 129.806-57.191 15.251-6.47 125.935-58.519 130.556-58.519 2.311 0 127.495 56.035 138.817 61.754 22.876 11.496 118.887 57.017 138.817 61.696v320.093c-20.508 4.795-96.646 42.806-121.487 53.955-19.988 9.012-40.669 17.85-61.061 27.671-8.781 4.217-58.461 23.512-58.461 30.213v345.165c-25.071 5.835-109.413 47.716-137.546 61.119-12.536 5.95-137.604 62.332-138.239 62.332-2.888 0-127.148-55.862-138.817-61.754-22.876-11.496-118.887-57.017-138.875-61.696z" />
<glyph unicode="&#xe934;" glyph-name="Reserve" horiz-adv-x="1013" d="M136.665 960c-75.15 0-136.665-61.681-136.665-137.105v-749.79c0-75.424 61.516-137.105 136.665-137.105h311.373c32.71 5.497 31.335 49.202 0 54.644-94.060 0-188.010 0-282.016 0-67.123 0-112.037 48.102-112.037 115.5v695.696c0 67.343 40.076 103.516 107.199 103.516h162.558v-130.838c-0.22-1.649-0.33-3.243-0.33-4.948 0-20.065 16.217-36.283 36.283-36.283s36.338 16.217 36.338 36.283c0 1.594-0.11 3.134-0.275 4.618v131.168h267.008v-130.838c-0.22-1.649-0.33-3.243-0.33-4.948 0-20.065 16.217-36.283 36.283-36.283s36.338 16.217 36.338 36.283c0 1.594-0.11 3.134-0.33 4.618v131.168h119.183c67.178 0 104.615-35.788 104.615-103.021v-341.553c5.607-28.916 48.982-33.424 54.039 0 0 137.93 0 224.184 0 362.114 0 75.424-61.516 137.105-136.721 137.105h-739.18zM721.422 144.241l-102.416 79.767-27.817-27.817 124.351-124.351 209.396 209.451-27.762 27.817-175.752-164.867zM758.090 445.004c-140.513 0-254.474-113.961-254.474-254.529 0-140.513 113.961-254.474 254.474-254.474s254.474 113.961 254.474 254.474c0 140.568-113.961 254.529-254.474 254.529zM758.090 420.046c126.715 0 229.516-102.801 229.516-229.571 0-126.715-102.801-229.516-229.516-229.516-126.77 0-229.571 102.801-229.571 229.516 0 126.77 102.801 229.571 229.571 229.571zM200.544 421.090h321.708c15.503 0.275 37.822-15.942 37.822-36.338 0-20.121-22.429-35.953-37.547-35.623h-322.313c-1.484-0.22-3.024-0.33-4.618-0.33-20.011 0-36.283 16.272-36.283 36.338s16.272 36.283 36.283 36.283c1.704 0 3.353-0.055 4.948-0.33zM200.544 544.891h219.786c15.503 0.22 37.822-15.942 37.822-36.393 0-20.066-22.429-35.898-37.547-35.623h-220.39c-1.484-0.165-3.024-0.275-4.618-0.275-20.011 0-36.283 16.272-36.283 36.338s16.272 36.283 36.283 36.283c1.704 0 3.353-0.11 4.948-0.33zM200.544 677.324h306.755c15.503 0.275 37.822-15.942 37.822-36.393 0-20.066-22.429-35.898-37.547-35.568h-307.36c-1.484-0.22-3.024-0.33-4.618-0.33-20.011 0-36.283 16.272-36.283 36.338s16.272 36.283 36.283 36.283c1.704 0 3.353-0.055 4.948-0.33z" />
<glyph unicode="&#xe935;" glyph-name="Reserve_list" horiz-adv-x="1013" d="M136.665 960c-75.15 0-136.665-61.681-136.665-137.105v-749.79c0-75.424 61.516-137.105 136.665-137.105h311.373c32.71 5.497 31.335 49.202 0 54.644-94.060 0-188.010 0-282.016 0-67.123 0-112.037 48.102-112.037 115.5v695.696c0 67.343 40.076 103.516 107.199 103.516h162.558v-130.838c-0.22-1.649-0.33-3.243-0.33-4.948 0-20.065 16.217-36.283 36.283-36.283s36.338 16.217 36.338 36.283c0 1.594-0.11 3.134-0.275 4.618v131.168h267.008v-130.838c-0.22-1.649-0.33-3.243-0.33-4.948 0-20.065 16.217-36.283 36.283-36.283s36.338 16.217 36.338 36.283c0 1.594-0.11 3.134-0.33 4.618v131.168h119.183c67.178 0 104.615-35.788 104.615-103.021v-341.553c5.607-28.916 48.982-33.424 54.039 0 0 137.93 0 224.184 0 362.114 0 75.424-61.516 137.105-136.721 137.105h-739.18zM659.687 153.917c-71.576-6.267-123.252-39.691-152.608-66.134-47.442-41.89-2.639-120.723 102.637-142.877 80.317-10.445 168.55-11.545 254.64-4.123 114.676 20.23 179.93 88.618 132.653 147-34.744 36.503-92.082 57.558-160.359 66.134-11.38 5.387-9.456 22.704-6.487 25.398 73.335 43.979 87.738 197.466 69.597 260.357-17.427 51.18-45.409 93.181-111.212 102.416-29.741 3.573-57.723 2.804-84.88 0-59.977-12.039-94.281-59.537-105.935-102.416-18.966-89.112 13.634-223.304 69.982-260.357 4.288-4.838 0.935-22.374-8.026-25.398zM681.896 135.171c14.513 2.914 24.958 40.846 11.27 54.974-46.948 30.895-85.814 165.471-70.037 239.796 9.675 35.733 38.317 75.314 88.288 85.375 22.649 2.309 46.013 2.969 70.752 0 54.864-7.696 78.228-42.715 92.741-85.375 15.118-52.445-6.377-203.129-67.508-239.796-9.675-6.157-9.785-47.552 12.754-54.864 6.212-5.113 84.825-7.092 142.382-47.497 57.283-43.649 0.33-118.139-123.746-122.537-71.796-6.157-145.351-5.278-212.309 3.408-95.71 15.668-143.757 85.045-78.118 119.128 27.652 18.141 82.186 42.33 133.532 47.388zM200.544 421.091h321.708c15.503 0.275 37.822-15.942 37.822-36.338 0-20.121-22.429-35.953-37.547-35.623h-322.313c-1.484-0.22-3.024-0.33-4.618-0.33-20.011 0-36.283 16.272-36.283 36.338s16.272 36.283 36.283 36.283c1.704 0 3.353-0.055 4.948-0.33zM200.544 544.892h219.786c15.503 0.22 37.822-15.942 37.822-36.393 0-20.066-22.429-35.898-37.547-35.623h-220.39c-1.484-0.165-3.024-0.275-4.618-0.275-20.011 0-36.283 16.272-36.283 36.338s16.272 36.283 36.283 36.283c1.704 0 3.353-0.11 4.948-0.33zM200.544 677.324h306.755c15.503 0.275 37.822-15.942 37.822-36.393 0-20.066-22.429-35.898-37.547-35.568h-307.36c-1.484-0.22-3.024-0.33-4.618-0.33-20.011 0-36.283 16.272-36.283 36.338s16.272 36.283 36.283 36.283c1.704 0 3.353-0.055 4.948-0.33z" />
<glyph unicode="&#xe936;" glyph-name="room_log" horiz-adv-x="1013" d="M136.719 960.001c-75.181 0-136.718-61.645-136.718-137.099v-749.803c0-75.453 61.537-137.099 136.718-137.099h311.381c32.671 5.491 31.312 49.142 0 54.633-94.045 0-188.089 0-282.080 0-67.027 0-111.929 48.11-111.929 115.409v695.714c0 67.408 40.064 103.612 107.2 103.612h692.669c67.245 0 104.591-35.824 104.591-103.069v-393.194c5.545-28.92 49.034-33.432 54.089 0 0 137.967 0 275.828 0 413.796 0 75.453-61.537 137.099-136.718 137.099h-739.203zM160.311 470.153c-16.798 0-30.388-13.59-30.388-30.388v-242.831c0-16.798 13.59-30.388 30.388-30.388h242.831c16.798 0 30.388 13.59 30.388 30.388v242.831c0 16.798-13.59 30.388-30.388 30.388h-242.831zM211.682 405.898h140.034c9.676 0 17.504-7.828 17.504-17.504v-140.034c0-9.676-7.828-17.504-17.504-17.504h-140.034c-9.676 0-17.504 7.828-17.504 17.504v140.034c0 9.676 7.828 17.504 17.504 17.504zM588.405 828.446c-16.798 0-30.388-13.59-30.388-30.388v-242.831c0-16.798 13.59-30.388 30.388-30.388h242.831c16.798 0 30.388 13.59 30.388 30.388v242.831c0 16.798-13.59 30.388-30.388 30.388h-242.831zM639.776 764.191h140.034c9.676 0 17.504-7.828 17.504-17.504v-140.034c0-9.676-7.828-17.504-17.504-17.504h-140.034c-9.676 0-17.504 7.828-17.504 17.504v140.034c0 9.676 7.828 17.504 17.504 17.504zM160.311 828.446c-16.798 0-30.388-13.59-30.388-30.388v-242.831c0-16.798 13.59-30.388 30.388-30.388h242.831c16.798 0 30.388 13.59 30.388 30.388v242.831c0 16.798-13.59 30.388-30.388 30.388h-242.831zM211.683 764.191h140.034c9.676 0 17.504-7.828 17.504-17.504v-140.034c0-9.676-7.828-17.504-17.504-17.504h-140.034c-9.676 0-17.504 7.828-17.504 17.504v140.034c0 9.676 7.828 17.504 17.504 17.504zM685.386 170.024l-146.394 58.438 139.762-139.762 235.438 235.438-31.258 31.258-197.549-185.372zM726.591 508.095c-157.974 0-286.048-128.075-286.048-286.048s128.075-286.048 286.048-286.048c157.974 0 286.048 128.075 286.048 286.048s-128.075 286.048-286.048 286.048zM726.591 480.099c142.481 0 257.997-115.572 257.997-258.052s-115.517-257.997-257.997-257.997c-142.481 0-258.052 115.517-258.052 257.997s115.572 258.052 258.052 258.052z" />
<glyph unicode="&#xe937;" glyph-name="room_pwd" horiz-adv-x="1127" d="M144.349 868.956v-877.986l935.691 0.416c7.547-6.656 12.658-18.541 12.658-27.931 0-14.263-14.441-27.456-29.179-27.456h-1034.341c-14.738 0-29.179 13.193-29.179 27.456 0 14.322 14.441 27.515 29.179 27.515h53.307v879.71c0 47.72 41.659 89.32 89.32 89.32h493.133c47.245 0 85.992-35.954 90.509-81.951h-56.040c-3.922 11.47-15.095 20.146-27.634 20.146h-498.243c-15.689 0-29.179-13.55-29.179-29.239zM593.329 439.888c-20.443 0-37.083-16.461-37.083-36.607v-292.563c0-20.146 16.64-36.607 37.083-36.607h496.4c20.384 0 37.024 16.461 37.024 36.607v292.563c0 20.146-16.64 36.607-37.024 36.607l-69.531 101.859c-15.928 171.627-313.185 215.961-348.010 0l-78.861-101.859zM611.929 417.008h459.198c18.125 0 32.982-14.679 32.982-32.566v-254.886c0-17.828-14.916-32.507-32.982-32.507h-459.198c-18.125 0-32.982 14.619-32.982 32.507v254.886c0 17.888 14.798 32.566 32.982 32.566zM694.653 439.888v82.307c15.868 210.018 308.965 161.762 300.17 0v-82.307h-300.17zM825.691 302.669v0zM231.769 451.477c0-14.322 14.441-27.515 29.179-27.515h237.118c14.738 0 29.179 13.193 29.179 27.515 0 14.263-14.441 27.456-29.179 27.456h-237.118c-14.738 0-29.179-13.193-29.179-27.456zM231.769 664.526c0-14.322 14.441-27.515 29.179-27.515h237.118c14.738 0 29.179 13.193 29.179 27.515 0 14.263-14.441 27.456-29.179 27.456h-237.118c-14.738 0-29.179-13.193-29.179-27.456zM231.769 274.502v-5.17c0-12.718 11.767-30.902 22.285-30.902h244.010c14.025 0 29.179 13.49 29.179 25.732 0 15.63-13.193 36.073-27.456 36.073h-242.288c-10.935 0-25.732-14.798-25.732-25.732z" />
<glyph unicode="&#xe938;" glyph-name="room_state" horiz-adv-x="1075" d="M351.816 480.37c0 3.289 170.398 177.148 185.573 187.304 15.061-10.098 183.785-182.285 183.785-185.516v-206.578c0-18.119-16.849-35.026-34.968-35.026h-299.364c-21.235 0-35.026 18.638-35.026 40.277v199.538zM539.12-64.001c137.16 0 228.216 51.644 307.385 110.963 32.602 24.408 76.861 75.822 99.135 110.963 14.83 23.485 62.608 113.56 62.608 145.643v1.789c0 15.58-13.618 31.506-27.986 31.506h-6.982c-25.332 0-30.756-37.68-37.853-58.453-8.655-25.332-19.331-44.316-30.41-65.839-21.812-42.239-53.318-73.052-85.343-105.482-52.51-53.087-167.397-108.078-273.513-108.078h-12.291c-118.176 0-218.118 51.818-280.495 108.078-30.352 27.294-66.82 70.167-86.497 107.79-11.887 22.62-20.946 41.604-30.121 66.186-8.655 23.139-9.175 55.799-40.508 55.799h-1.731c-25.793 0-43.047-46.278-54.933-65.839-9.521-15.522-39.584-60.588-39.584-79.457 0-15.695 16.215-27.986 33.237-27.986h1.789c24.293 0 40.45 52.395 54.241 68.263 6.867-29.602 51.183-93.94 69.532-116.041 26.486-31.852 60.704-66.705 95.73-89.844 73.572-48.586 158.28-89.959 279.341-89.959h5.251zM64.743 588.91c0-16.907 13.041-31.506 29.775-31.506h1.731c29.602 0 32.487 31.737 40.046 54.472 8.078 24.178 17.542 44.374 28.794 65.724 20.542 39.123 53.26 77.784 83.843 106.982 52.972 50.49 167.224 112.406 269.185 112.406h19.273c58.742 0 119.965-14.772 161.627-32.718 55.337-23.831 75.533-42.181 119.504-74.783 32.083-23.774 64.743-72.475 86.843-107.443 11.137-17.715 23.254-46.682 30.929-67.109 8.829-23.543 9.117-57.53 40.45-57.53h1.789c25.043 0 45.239 43.047 54.818 62.435 6.751 13.56 41.431 66.936 41.431 77.611 0 16.561-10.964 33.237-26.255 33.237h-6.982c-31.275 0-43.047-62.55-57.761-66.532-6.809 29.198-51.414 94.172-69.532 116.041-30.41 36.526-57.299 61.281-96.075 89.498-65.839 47.894-167.743 90.306-280.784 90.306h-1.731c-119.619 0-247.778-54.183-308.539-111.598-18.984-17.946-36.93-30.352-53.491-51.529-16.619-21.235-29.082-36.815-45.528-59.492-15.695-21.696-63.358-116.041-63.358-148.471zM224.061 368.368c22.908 0 47.605 40.969 64.743 52.51 0-38.026-3.866-143.854 3.462-169.878 11.367-40.565 47.663-73.456 99.826-73.456h288.863c56.376 0 84.708 31.621 99.769 73.514 7.271 20.196 3.462 136.065 3.462 169.82 17.196-11.541 41.835-52.51 64.801-52.51h5.251c24.408 0 37.103 34.795 17.080 55.626-15.638 16.272-31.217 31.16-47.259 47.201-31.679 31.621-62.031 61.973-93.71 93.652-31.91 31.91-62.55 62.608-94.518 94.518-16.157 16.157-31.044 31.102-47.259 47.259-11.829 11.829-32.602 39.815-52.914 39.815-19.735 0-77.322-65.897-92.383-80.958-29.313-29.313-57.299-57.357-86.612-86.612-29.313-29.313-57.357-57.357-86.67-86.67-15.753-15.753-79.169-70.398-79.169-92.325 0-14.137 14.253-31.506 27.986-31.506h5.251z" />
<glyph unicode="&#xe939;" glyph-name="screen" d="M218.761 876.749c0 14.507 10.377 28.706 25.839 28.706h488.039c17.988 0 28.74-15.906 28.74-34.441 0-16.555-88.030-127.147-102.878-146.91-29.525-39.151-86.63-97.962-86.63-160.29v-442.095c0-14.507 10.377-28.706 25.839-28.706 33.28 0 22.972 67.038 22.972 100.489 0 40.175 0 80.384 0 120.559 0 81.34 0.375 162.747-0.034 244.053-0.239 51.098 64.307 118.886 90.214 153.805 19.661 26.487 96.427 116.258 96.427 147.593v25.839c0 34.611-36.796 74.65-71.748 74.65h-490.939c-33.519 0-61.645-30.14-69.018-57.31-11.537-42.769-1.946-64.683 19.422-92.774 36.25-47.548 69.53-93.321 105.335-141.551 59.426-80.077 59.085-56.013 59.085-190.669 0-41.131 0-82.295 0-123.426 0-28.331-10.001-106.222 17.237-106.222h11.503c9.284 0 17.203 12.459 17.203 22.972v298.564c0 91.204-186.607 256.956-186.607 301.431v5.734zM678.093 563.814c0-14.165 11.674-25.839 25.839-25.839h163.669c14.165 0 25.839 11.674 25.839 25.839 0 13.892-8.158 25.839-22.972 25.839h-169.404c-12.186 0-22.972-10.684-22.972-20.070v-5.769zM678.093 271.018c0-13.892 8.158-25.839 22.972-25.839h169.404c14.814 0 22.972 11.947 22.972 25.839 0 14.165-11.674 25.839-25.839 25.839h-169.404c-9.148 0-20.104-14.643-20.104-25.839zM873.335 391.577c9.148 0 20.104 14.643 20.104 25.839s-10.957 25.839-20.104 25.839h-172.271c-14.814 0-22.972-11.947-22.972-25.839v-5.734c0-9.421 10.786-20.104 22.972-20.104h172.271z" />
<glyph unicode="&#xe93a;" glyph-name="set_log" d="M347.135 936.789v-49.562h-109.909c-35.362 0-66.56-30.31-66.56-66.56v-617.747c0-29.867 16.759-53.931 37.717-62.873 23.62-10.069 62.703-6.793 95.403-6.793 67.618 0 135.236 0 202.821 0-9.865 14.746-33.758 35.669-38.707 54.204h-233.779c-3.721 0-9.284 5.564-9.284 9.284v627.031c0 5.018 6.724 9.284 12.39 9.284h109.909v-54.204c0-11.913 13.346-23.211 26.317-23.211 14.165 0 26.317 12.151 26.317 26.317v51.097h182.716v-51.097c0-14.711 12.937-26.317 27.853-26.317 16.555 0 26.317 15.258 26.317 32.495v44.919h122.3c20.275 0 12.39-53.999 12.39-74.308 0-29.423 0-58.846 0-88.269 0-58.812 0-117.658 0-176.47 10.377-5.495 18.466-10.786 27.887-17.033 5.7-3.789 22.528-19.115 26.317-20.139v360.721c0 44.203-32.324 69.666-77.414 69.666h-113.016v51.097c0 11.947-13.858 21.675-26.317 21.675-14.165 0-26.317-12.186-26.317-26.317v-46.455h-182.716v46.455c0 14.507-11.844 26.317-26.317 26.317-13.073 0-26.317-10.889-26.317-23.211zM288.324 439.808c0-14.165 12.151-26.317 26.317-26.317h154.829c4.198 0 18.159 21.777 22.835 26.692 4.847 5.12 22.938 22.938 25.156 25.941-42.325 0-84.651 0-126.976 0-37.342 0-102.161 12.083-102.161-26.317zM288.324 610.099c0-12.971 11.298-26.317 23.211-26.317h370.040c33.655 0 33.655 52.634 0 52.634h-366.934c-14.677 0-26.317-11.639-26.317-26.317zM690.175 285.661c7.817-4.949 64.137-59.187 64.137-67.243 0-6.042-4.233-10.854-10.82-10.854h-4.642c-3.721 0-60.723 57.037-64.137 62.6l15.462 15.497zM644.403 365.499c0 10.854-22.050 25.361-27.853 34.065 36.011 0 65.024-25.532 65.024-60.382v-1.57c0-25.498-26.761-57.276-49.562-57.276h-20.139c-27.682 0-51.064 32.393-51.064 63.488 8.67-5.837 23.177-27.887 34.065-27.887h1.536c8.875 0 47.991 39.151 47.991 48.026v1.536zM611.873 363.963l-15.462-15.497c-9.66 6.485-28.911 34.065-40.243 34.065h-3.106c-14.848 0-18.569-28.706-18.569-44.919v-3.072c0-41.233 40.823-82.057 82.057-82.057h4.642c11.093 0 23.142 4.642 26.317 4.642 10.513 0 60.894-77.414 94.447-77.414h3.072c19.319 0 35.601 18.398 35.601 38.707v3.106c0 18.637-24.474 37.649-35.191 48.367-9.967 9.967-32.563 34.953-41.404 41.267l3.857 28.024c3.447 20.685-16.009 53.351-25.907 62.362-14.37 13.107-37.001 24.337-63.897 24.337-16.623 0-47.991-6.485-39.731-25.771 4.164-9.728 26.624-25.839 33.519-36.147zM492.68 300.476c0 85.845 79.428 167.185 164.113 167.185h15.462c88.064 0 165.683-81.886 165.683-171.827v-1.57c0-49.459-25.6-96.086-50.654-121.173-13.175-13.175-32.529-26.146-50.483-34.679-24.405-11.605-37.786-11.913-69.803-15.36-45.534-4.949-98.987 26.419-121.344 47.718-24.201 23.108-52.975 70.827-52.975 117.316v12.39zM463.257 295.833v-10.854c0-100.386 95.744-191.966 198.178-191.966h4.642c107.691 0 201.25 91.307 201.25 198.178 0 112.538-87.040 205.892-198.144 205.892h-9.284c-106.94 0-196.642-92.604-196.642-201.25z" />
<glyph unicode="&#xe93b;" glyph-name="time_room" horiz-adv-x="1111" d="M555.614 884.9c-254.482 0-460.84-206.357-460.84-460.84 0-134.21 57.472-254.974 149.050-339.173l-77.148-77.066c-1.394-1.066-2.788-2.296-4.099-3.607-15.577-15.577-15.577-40.911 0-56.488 15.659-15.659 40.993-15.659 56.57-0.082 1.23 1.23 2.378 2.542 3.361 3.853l84.609 84.527c71.655-46.076 157.002-72.721 248.498-72.721 98.956 0 190.534 31.155 265.633 84.199l96.087-96.005c0.984-1.312 2.132-2.624 3.361-3.853 15.577-15.577 40.911-15.577 56.57 0.082 15.577 15.577 15.577 40.911 0 56.488-1.312 1.312-2.706 2.46-4.099 3.607l-91.086 91.004c83.051 83.378 134.374 198.323 134.374 325.237 0 254.482-206.357 460.84-460.84 460.84zM902.168 960c-58.21 0-110.844-23.858-148.722-62.309 142.737-48.782 239.644-148.722 298.509-291.049 36.32 37.549 58.702 88.626 58.702 144.95 0 115.108-93.382 208.407-208.489 208.407zM208.488 960c58.128 0 110.763-23.858 148.64-62.309-142.737-48.782-239.562-148.722-298.509-291.049-36.32 37.549-58.62 88.626-58.62 144.95 0 115.108 93.3 208.407 208.489 208.407zM521.918 467.759v245.547c-0.246 17.053 17.545 41.649 40.091 41.649 22.054 0 39.517-24.678 39.189-41.321v-276.456c0.246-1.64 0.328 6.887 0.328-5.083l-0.328-4.427c0-22.054-24.678-39.517-41.321-39.189h-276.701c-1.64-0.246-3.361-0.328-5.083-0.328-22.054 0-39.927 17.873-39.927 40.009s17.873 40.009 39.927 40.009c1.886 0 3.689-0.164 5.411-0.41h238.415zM555.614 796.767c205.784 0 372.706-166.923 372.706-372.706s-166.923-372.624-372.706-372.624c-205.784 0-372.706 166.841-372.706 372.624s166.923 372.706 372.706 372.706z" />
<glyph unicode="&#xe93c;" glyph-name="tool" horiz-adv-x="1188" d="M577.897 958.214c-73.106 1.595-203.881-44.655-241.327-82.101l-214.535-214.535c-9.314-9.314-9.314-24.496 0-33.81l135.304-135.304c9.314-9.314 24.56-9.314 33.81 0l214.599 214.535c9.25 9.25 1.786 39.105-16.905 54.479-30.046 93.966 26.474 143.023 89.055 196.736zM1168.489 809.066l-51.544-57.924c-48.801-54.67-123.822-68.067-166.882-29.727l-1.531 1.34c-43.060 38.338-38.403 114.444 10.334 169.178l51.608 57.924c-89.374 26.346-189.91 1.148-256-72.979-66.089-74.191-79.55-176.961-43.060-262.698l-431.493-484.313c-48.738-54.67-53.394-130.775-10.398-169.114l1.595-1.403c42.997-38.339 118.080-24.943 166.818 29.727l431.493 484.313c89.374-26.41 189.91-1.212 256 72.979 66.089 74.128 79.55 176.961 43.060 262.698zM347.861 81.192c-17.671 0-31.833-14.162-31.833-31.833 0-17.543 14.162-31.705 31.833-31.705 17.543 0 31.705 14.162 31.705 31.705 0 17.671-14.162 31.833-31.705 31.833zM1144.822 700.427c-23.986-171.794-190.422-216.704-292.362-163.947l-463.071-515.253c-23.667-26.346-59.901-32.917-80.698-14.353l-0.766 0.638c-20.796 18.564-18.691 55.436 5.040 81.782l460.965 513.020c-74.255 105.322-19.457 274.564 127.522 308.054-88.991-149.148-7.209-228.696 0.829-235.841l0.766-0.702c64.112-57.158 175.813-35.533 241.775 26.602zM473.405 638.867l-110.361-110.361 124.077-140.088 121.461 135.495c-46.505 39.551-88.672 75.403-135.177 114.954zM480.74 583.814c25.389-21.562 48.419-41.146 73.808-62.772l-66.344-74-67.748 76.487 60.284 60.284zM797.407 363.283l-142.832-163.884 209.431-236.416c25.070-30.365 43.953-33.427 58.562-17.607 43.443 43.379 86.822 86.822 130.265 130.265 22.774 26.665 22.519 51.098-3.126 73.106-84.972 72.278-167.328 142.322-252.3 214.535zM805.763 297.895c54.479-46.313 131.54-112.785 186.019-159.099 16.395-14.098 16.586-29.791 1.978-46.888-27.814-27.814-55.627-55.691-83.505-83.505-9.378-10.143-21.498-8.165-37.51 11.291l-158.525 173.133 91.542 105.066zM100.599 606.332c-9.314 9.314-26.793 7.017-30.301 3.509l-67.11-67.11c-3.572-3.508-6.060-21.307 3.19-30.557l135.368-135.368c9.25-9.25 23.986-9.824 30.557-3.19l67.11 67.11c3.509 3.509 5.805 20.988-3.445 30.301l-135.368 135.304zM87.968 563.591l103.854-102.898c3.955-3.891 2.934-11.355 1.467-12.886l-28.515-28.452c-2.807-2.807-8.995-2.552-12.95 1.34l-103.854 102.898c-3.955 3.891-2.871 11.483-1.403 13.014l28.515 28.515c1.467 1.467 8.931 2.424 12.886-1.531zM456.37 879.365c-36.872-31.641-39.615-78.784-22.008-134.093 11.036-9.059 9.888-30.493 4.402-35.979l-148.892-148.318c-5.486-5.486-14.481-5.486-19.903 0l-79.677 79.613c-5.422 5.486-5.422 14.417 0 19.903l126.246 126.246c22.072 22.008 96.773 93.52 139.834 92.627z" />
<glyph unicode="&#xe93d;" glyph-name="Triangle_border_bottom" d="M525.428-23.216l-525.429 910.074h1050.861l-525.429-910.074zM526.308 189.688l348.38 603.429-696.863 0.132 348.482-603.562z" />
<glyph unicode="&#xe93e;" glyph-name="Triangle_border_left" horiz-adv-x="887" d="M0 447.999l886.812-511.999v1024l-886.812-511.999zM207.463 448.855l588.006 339.475 0.128-679.051-588.134 339.575z" />
<glyph unicode="&#xe93f;" glyph-name="Triangle_border_right" horiz-adv-x="887" d="M886.814 448.001l-886.815-512.001v1024l886.815-512.001zM679.351 448.855l-588.007 339.476-0.128-679.053 588.135 339.576z" />
<glyph unicode="&#xe940;" glyph-name="Triangle_border_round_bttom" d="M528.616 59.511c-15.974-27.575-70.758-36.030-96.007 0-78.863 136.588-136.090 235.711-214.952 372.313l-210.636 364.836c-21.84 46.914 10.108 88.795 56.686 90.2 153.659 0 263.008 0 416.666 0h431.367c49.371-3.379 59.889-58.251 42.496-90.2-76.112-131.832-134.524-233.003-210.636-364.836l-214.981-372.313zM513.594 186.224l147.163 254.873c52.107 90.244 129.463 224.241 181.57 314.485 11.908 21.87 4.71 59.436-29.082 61.747-212.772 0-458.209 0.731-655.709 0.731-31.89-0.965-53.76-29.637-38.809-61.747l182.008-315.216c53.979-93.506 93.155-161.368 147.134-254.873 17.291-24.664 54.799-18.871 65.726 0z" />
<glyph unicode="&#xe941;" glyph-name="Triangle_border_round_left" horiz-adv-x="906" d="M25.504 498.659c-29.351-17.003-38.35-75.315 0-102.19 145.382-83.941 250.889-144.853 396.287-228.794l388.33-224.201c49.935-23.247 94.513 10.759 96.008 60.336 0 163.554 0 279.943 0 443.497v459.145c-3.597 52.551-62.002 63.746-96.008 45.233-140.322-81.014-248.008-143.187-388.33-224.201l-396.287-228.825zM160.377 482.668l271.286 156.64c96.055 55.462 238.681 137.8 334.736 193.262 23.278 12.674 63.263 5.014 65.723-30.954 0-226.474 0.779-487.718 0.779-697.934-1.028-33.944-31.546-57.222-65.723-41.309l-335.515 193.729c-99.527 57.455-171.759 99.153-271.286 156.609-26.252 18.404-20.086 58.327 0 69.959z" />
<glyph unicode="&#xe942;" glyph-name="Triangle_border_round_right" horiz-adv-x="906" d="M880.627 498.659c29.351-17.003 38.35-75.315 0-102.189-145.382-83.941-250.888-144.853-396.286-228.794l-388.33-224.201c-49.935-23.246-94.513 10.759-96.008 60.336 0 163.553 0 279.943 0 443.496v459.145c3.597 52.551 62.002 63.746 96.008 45.233 140.322-81.014 248.008-143.187 388.33-224.201l396.286-228.825zM745.754 482.669l-271.286 156.64c-96.055 55.462-238.681 137.799-334.736 193.262-23.278 12.674-63.263 5.014-65.723-30.954 0-226.474-0.779-487.717-0.779-697.934 1.028-33.944 31.546-57.222 65.723-41.309l335.515 193.729c99.527 57.455 171.759 99.154 271.286 156.609 26.252 18.404 20.086 58.327 0 69.958z" />
<glyph unicode="&#xe943;" glyph-name="Triangle_border_round_top" d="M528.616 862.896c-15.974 27.575-70.758 36.030-96.007 0-78.863-136.588-136.090-235.711-214.952-372.313l-210.636-364.836c-21.84-46.914 10.108-88.795 56.686-90.2 153.659 0 263.008 0 416.666 0h431.367c49.371 3.379 59.889 58.251 42.496 90.2-76.112 131.832-134.524 233.003-210.636 364.836l-214.981 372.313zM513.594 736.184l147.163-254.873c52.107-90.244 129.463-224.241 181.57-314.485 11.908-21.87 4.71-59.436-29.082-61.747-212.772 0-458.209-0.731-655.709-0.731-31.89 0.965-53.76 29.637-38.809 61.747l182.008 315.216c53.979 93.506 93.155 161.368 147.134 254.873 17.291 24.664 54.799 18.871 65.726 0z" />
<glyph unicode="&#xe944;" glyph-name="Triangle_border_top" d="M525.428 886.858l-525.429-910.074h1050.861l-525.429 910.074zM526.308 673.954l348.38-603.429-696.863-0.132 348.482 603.562z" />
<glyph unicode="&#xe945;" glyph-name="Triangle_solid_btoom" d="M525.427-23.216l525.431 910.074h-1050.858l262.714-455.037z" />
<glyph unicode="&#xe946;" glyph-name="Triangle_solid_left" horiz-adv-x="887" d="M-0.001 447.998l886.814 512.002v-1024l-443.408 255.999z" />
<glyph unicode="&#xe947;" glyph-name="Triangle_solid_right" horiz-adv-x="887" d="M886.813 447.998l-886.814 512.002v-1024l443.407 256.001z" />
<glyph unicode="&#xe948;" glyph-name="Triangle_solid_round_bottom" d="M528.62 59.509l214.982 372.31c76.113 131.833 134.524 233.004 210.637 364.838 17.393 31.949 6.875 86.821-42.496 90.2h-431.367c-153.659 0-263.007 0-416.667 0-46.577-1.404-78.526-43.286-56.686-90.2l210.637-364.838c78.863-136.602 136.090-235.725 214.952-372.31 25.249-36.030 80.033-27.575 96.008 0z" />
<glyph unicode="&#xe949;" glyph-name="Triangle_solid_round_left" horiz-adv-x="906" d="M25.503 498.657l396.288 228.826c140.322 81.014 248.009 143.188 388.331 224.201 34.006 18.513 92.412 7.318 96.008-45.233v-459.144c0-163.554 0-279.944 0-443.496-1.495-49.577-46.073-83.583-96.008-60.336l-388.331 224.201c-145.399 83.941-250.905 144.854-396.288 228.795-38.35 26.875-29.351 85.187 0 102.19z" />
<glyph unicode="&#xe94a;" glyph-name="Triangle_solid_round_right" horiz-adv-x="906" d="M880.638 498.652l-396.292 228.829c-140.324 81.015-248.012 143.189-388.336 224.204-34.007 18.514-92.413 7.318-96.010-45.233v-459.152c0-163.556 0-279.947 0-443.503 1.495-49.577 46.074-83.584 96.010-60.337l388.336 224.204c145.4 83.942 250.908 144.855 396.292 228.798 38.351 26.875 29.351 85.188 0 102.191z" />
<glyph unicode="&#xe94b;" glyph-name="Triangle_solid_round_top" d="M528.62 862.897l214.982-372.31c76.113-131.833 134.524-233.004 210.637-364.838 17.393-31.949 6.875-86.821-42.496-90.2h-431.367c-153.659 0-263.007 0-416.667 0-46.577 1.404-78.526 43.286-56.686 90.2l210.637 364.838c78.863 136.602 136.090 235.725 214.952 372.31 25.249 36.030 80.033 27.575 96.008 0z" />
<glyph unicode="&#xe94c;" glyph-name="Triangle_solid_top" d="M525.429 886.857l525.429-910.072h-1050.858l262.714 455.036z" />
<glyph unicode="&#xe94d;" glyph-name="user" d="M490.842 960c-172.009 0-311.455-139.446-311.455-311.455 0-171.97 139.446-311.375 311.455-311.375 27.929 0 54.932 3.667 80.685 10.559 9.713 0.806 17.048 0.040 22.569-1.128 227.062-71.012 380.009-182.771 387.062-391.495 4.111-26.156 39.174-24.786 42.519 0 0 126.307-47.033 305.611-382.589 420.674 96.080 52.997 161.128 155.284 161.128 272.765 0 172.009-139.405 311.455-311.375 311.455zM268.575 289.133c-148.352-71.738-228.594-176.12-229.682-330.639-2.015-22.851-36.272-19.305-38.69 0-4.071 131.506 52.111 260.715 246.891 369.893 24.463 7.375 41.068-25.269 21.481-39.254zM490.237 920.789c150.045 0 271.758-121.672 271.758-271.798 0-150.045-121.713-271.758-271.758-271.758-150.126 0-271.798 121.713-271.798 271.758 0 150.126 121.672 271.798 271.798 271.798z" />
</font>
</defs>
</svg>
